G04*
G04 #@! TF.GenerationSoftware,Altium Limited,Altium Designer,26.1.1 (7)*
G04*
G04 Layer_Color=32896*
%FSLAX25Y25*%
%MOIN*%
G70*
G04*
G04 #@! TF.SameCoordinates,0E126E90-0E33-439C-9967-E6331449B6E0*
G04*
G04*
G04 #@! TF.FilePolarity,Positive*
G04*
G01*
G75*
%ADD11C,0.00600*%
%ADD12C,0.00787*%
%ADD13C,0.01000*%
%ADD14C,0.00500*%
D11*
X58704Y8491D02*
X64422D01*
X58704Y20509D02*
X64422D01*
D12*
X38520Y11000D02*
G03*
X38520Y11000I-394J0D01*
G01*
D13*
X53499Y38156D02*
G03*
X80391Y38154I13446J-1D01*
G01*
X44497Y57347D02*
G03*
X45501Y56343I1004J0D01*
G01*
X45662Y76343D02*
G03*
X44497Y75178I0J-1165D01*
G01*
X80499Y94846D02*
G03*
X53608Y94844I-13446J-1D01*
G01*
X53495Y38154D02*
X53608Y94844D01*
X44497Y57347D02*
Y75178D01*
X80391Y38154D02*
X80503Y94844D01*
X46921Y56343D02*
X53531D01*
X45501D02*
X46921D01*
X46765Y76343D02*
X53376D01*
X45662D02*
X46765D01*
X77268Y131960D02*
X77824D01*
X65800Y144953D02*
X70865D01*
X65800Y131960D02*
Y144953D01*
Y131960D02*
X70865D01*
X77268Y144953D02*
X89763D01*
X96166Y131960D02*
X101233D01*
Y144953D01*
X96166D02*
X101233D01*
X77272Y131957D02*
X89760D01*
X48501Y136996D02*
X53499D01*
X54499Y135997D01*
Y133997D01*
X53499Y132998D01*
X48501D01*
X49501Y127000D02*
X48501Y127999D01*
Y129999D01*
X49501Y130998D01*
X50500D01*
X51500Y129999D01*
Y127999D01*
X52500Y127000D01*
X53499D01*
X54499Y127999D01*
Y129999D01*
X53499Y130998D01*
X48501Y125000D02*
X54499D01*
Y122001D01*
X53499Y121002D01*
X52500D01*
X51500Y122001D01*
Y125000D01*
Y122001D01*
X50500Y121002D01*
X49501D01*
X48501Y122001D01*
Y125000D01*
X49501Y115004D02*
X48501Y116003D01*
Y118003D01*
X49501Y119002D01*
X53499D01*
X54499Y118003D01*
Y116003D01*
X53499Y115004D01*
X88001Y55000D02*
Y58999D01*
X86001Y56999D02*
X90000D01*
X88000Y72000D02*
Y75999D01*
X13002Y40999D02*
Y35001D01*
X16001D01*
X17001Y36001D01*
Y38000D01*
X16001Y39000D01*
X13002D01*
X15001D02*
X17001Y40999D01*
X19000D02*
X21000D01*
X20000D01*
Y35001D01*
X19000Y36001D01*
X23999Y40999D02*
X25998D01*
X24998D01*
Y35001D01*
X23999Y36001D01*
X28498Y1001D02*
Y6999D01*
X25499D01*
X24499Y5999D01*
Y4000D01*
X25499Y3000D01*
X28498D01*
X26498D02*
X24499Y1001D01*
X22500D02*
X20500D01*
X21500D01*
Y6999D01*
X22500Y5999D01*
X17501D02*
X16501Y6999D01*
X14502D01*
X13502Y5999D01*
Y2001D01*
X14502Y1001D01*
X16501D01*
X17501Y2001D01*
Y5999D01*
X2502Y57999D02*
Y52001D01*
X5501D01*
X6500Y53001D01*
Y55000D01*
X5501Y56000D01*
X2502D01*
X4501D02*
X6500Y57999D01*
X8500Y56999D02*
X9499Y57999D01*
X11499D01*
X12498Y56999D01*
Y53001D01*
X11499Y52001D01*
X9499D01*
X8500Y53001D01*
Y54000D01*
X9499Y55000D01*
X12498D01*
X50500Y24001D02*
Y27999D01*
X51500Y28999D01*
X53499D01*
X54499Y27999D01*
Y24001D01*
X53499Y23001D01*
X51500D01*
X52499Y25000D02*
X50500Y23001D01*
X51500D02*
X50500Y24001D01*
X48501Y23001D02*
X46501D01*
X47501D01*
Y28999D01*
X48501Y27999D01*
X52498Y6999D02*
Y1001D01*
X49499D01*
X48500Y2001D01*
Y5999D01*
X49499Y6999D01*
X52498D01*
X46500Y1001D02*
Y6999D01*
X43501D01*
X42502Y5999D01*
Y4000D01*
X43501Y3000D01*
X46500D01*
X44501D02*
X42502Y1001D01*
X125999Y71001D02*
Y76999D01*
X123000D01*
X122000Y75999D01*
Y74000D01*
X123000Y73000D01*
X125999D01*
X123999D02*
X122000Y71001D01*
X120001D02*
X118001D01*
X119001D01*
Y76999D01*
X120001Y75999D01*
X104499Y39998D02*
X98501D01*
Y36999D01*
X99501Y36000D01*
X101500D01*
X102500Y36999D01*
Y39998D01*
Y37999D02*
X104499Y36000D01*
X99501Y34000D02*
X98501Y33001D01*
Y31001D01*
X99501Y30002D01*
X100500D01*
X101500Y31001D01*
X102500Y30002D01*
X103499D01*
X104499Y31001D01*
Y33001D01*
X103499Y34000D01*
X102500D01*
X101500Y33001D01*
X100500Y34000D01*
X99501D01*
X101500Y33001D02*
Y31001D01*
X61998Y143001D02*
Y148999D01*
X58999D01*
X58000Y147999D01*
Y146000D01*
X58999Y145000D01*
X61998D01*
X59999D02*
X58000Y143001D01*
X52002Y148999D02*
X54001Y147999D01*
X56000Y146000D01*
Y144001D01*
X55001Y143001D01*
X53001D01*
X52002Y144001D01*
Y145000D01*
X53001Y146000D01*
X56000D01*
X116001Y136502D02*
X121999D01*
Y139501D01*
X120999Y140500D01*
X119000D01*
X118000Y139501D01*
Y136502D01*
Y138501D02*
X116001Y140500D01*
X121999Y146498D02*
Y142500D01*
X119000D01*
X120000Y144499D01*
Y145499D01*
X119000Y146498D01*
X117001D01*
X116001Y145499D01*
Y143499D01*
X117001Y142500D01*
X92498Y63001D02*
Y68999D01*
X90499Y67000D01*
X88500Y68999D01*
Y63001D01*
X82502Y67999D02*
X83501Y68999D01*
X85501D01*
X86500Y67999D01*
Y64001D01*
X85501Y63001D01*
X83501D01*
X82502Y64001D01*
D14*
X45665Y9228D02*
X46335D01*
X45665Y12772D02*
X46335D01*
M02*
