G04*
G04 #@! TF.GenerationSoftware,Altium Limited,Altium Designer,26.1.1 (7)*
G04*
G04 Layer_Color=8421504*
%FSLAX25Y25*%
%MOIN*%
G70*
G04*
G04 #@! TF.SameCoordinates,0E126E90-0E33-439C-9967-E6331449B6E0*
G04*
G04*
G04 #@! TF.FilePolarity,Positive*
G04*
G01*
G75*
G04:AMPARAMS|DCode=16|XSize=34.25mil|YSize=36.61mil|CornerRadius=4.28mil|HoleSize=0mil|Usage=FLASHONLY|Rotation=270.000|XOffset=0mil|YOffset=0mil|HoleType=Round|Shape=RoundedRectangle|*
%AMROUNDEDRECTD16*
21,1,0.03425,0.02805,0,0,270.0*
21,1,0.02569,0.03661,0,0,270.0*
1,1,0.00856,-0.01403,-0.01284*
1,1,0.00856,-0.01403,0.01284*
1,1,0.00856,0.01403,0.01284*
1,1,0.00856,0.01403,-0.01284*
%
%ADD16ROUNDEDRECTD16*%
G04:AMPARAMS|DCode=17|XSize=41.34mil|YSize=54.33mil|CornerRadius=5.17mil|HoleSize=0mil|Usage=FLASHONLY|Rotation=90.000|XOffset=0mil|YOffset=0mil|HoleType=Round|Shape=RoundedRectangle|*
%AMROUNDEDRECTD17*
21,1,0.04134,0.04400,0,0,90.0*
21,1,0.03100,0.05433,0,0,90.0*
1,1,0.01034,0.02200,0.01550*
1,1,0.01034,0.02200,-0.01550*
1,1,0.01034,-0.02200,-0.01550*
1,1,0.01034,-0.02200,0.01550*
%
%ADD17ROUNDEDRECTD17*%
%ADD18R,0.02200X0.07800*%
G04:AMPARAMS|DCode=19|XSize=77.56mil|YSize=23.62mil|CornerRadius=2.95mil|HoleSize=0mil|Usage=FLASHONLY|Rotation=90.000|XOffset=0mil|YOffset=0mil|HoleType=Round|Shape=RoundedRectangle|*
%AMROUNDEDRECTD19*
21,1,0.07756,0.01772,0,0,90.0*
21,1,0.07165,0.02362,0,0,90.0*
1,1,0.00591,0.00886,0.03583*
1,1,0.00591,0.00886,-0.03583*
1,1,0.00591,-0.00886,-0.03583*
1,1,0.00591,-0.00886,0.03583*
%
%ADD19ROUNDEDRECTD19*%
%ADD20R,0.03425X0.03661*%
G04:AMPARAMS|DCode=21|XSize=41.34mil|YSize=54.33mil|CornerRadius=5.17mil|HoleSize=0mil|Usage=FLASHONLY|Rotation=0.000|XOffset=0mil|YOffset=0mil|HoleType=Round|Shape=RoundedRectangle|*
%AMROUNDEDRECTD21*
21,1,0.04134,0.04400,0,0,0.0*
21,1,0.03100,0.05433,0,0,0.0*
1,1,0.01034,0.01550,-0.02200*
1,1,0.01034,-0.01550,-0.02200*
1,1,0.01034,-0.01550,0.02200*
1,1,0.01034,0.01550,0.02200*
%
%ADD21ROUNDEDRECTD21*%
%ADD22R,0.03110X0.03661*%
G04:AMPARAMS|DCode=23|XSize=51.58mil|YSize=24.41mil|CornerRadius=3.05mil|HoleSize=0mil|Usage=FLASHONLY|Rotation=0.000|XOffset=0mil|YOffset=0mil|HoleType=Round|Shape=RoundedRectangle|*
%AMROUNDEDRECTD23*
21,1,0.05158,0.01831,0,0,0.0*
21,1,0.04547,0.02441,0,0,0.0*
1,1,0.00610,0.02274,-0.00915*
1,1,0.00610,-0.02274,-0.00915*
1,1,0.00610,-0.02274,0.00915*
1,1,0.00610,0.02274,0.00915*
%
%ADD23ROUNDEDRECTD23*%
G04:AMPARAMS|DCode=24|XSize=48.82mil|YSize=23.23mil|CornerRadius=2.9mil|HoleSize=0mil|Usage=FLASHONLY|Rotation=0.000|XOffset=0mil|YOffset=0mil|HoleType=Round|Shape=RoundedRectangle|*
%AMROUNDEDRECTD24*
21,1,0.04882,0.01742,0,0,0.0*
21,1,0.04301,0.02323,0,0,0.0*
1,1,0.00581,0.02151,-0.00871*
1,1,0.00581,-0.02151,-0.00871*
1,1,0.00581,-0.02151,0.00871*
1,1,0.00581,0.02151,0.00871*
%
%ADD24ROUNDEDRECTD24*%
G04:AMPARAMS|DCode=25|XSize=49.21mil|YSize=23.23mil|CornerRadius=2.9mil|HoleSize=0mil|Usage=FLASHONLY|Rotation=0.000|XOffset=0mil|YOffset=0mil|HoleType=Round|Shape=RoundedRectangle|*
%AMROUNDEDRECTD25*
21,1,0.04921,0.01742,0,0,0.0*
21,1,0.04341,0.02323,0,0,0.0*
1,1,0.00581,0.02170,-0.00871*
1,1,0.00581,-0.02170,-0.00871*
1,1,0.00581,-0.02170,0.00871*
1,1,0.00581,0.02170,0.00871*
%
%ADD25ROUNDEDRECTD25*%
G04:AMPARAMS|DCode=26|XSize=53.15mil|YSize=22.05mil|CornerRadius=2.76mil|HoleSize=0mil|Usage=FLASHONLY|Rotation=90.000|XOffset=0mil|YOffset=0mil|HoleType=Round|Shape=RoundedRectangle|*
%AMROUNDEDRECTD26*
21,1,0.05315,0.01654,0,0,90.0*
21,1,0.04764,0.02205,0,0,90.0*
1,1,0.00551,0.00827,0.02382*
1,1,0.00551,0.00827,-0.02382*
1,1,0.00551,-0.00827,-0.02382*
1,1,0.00551,-0.00827,0.02382*
%
%ADD26ROUNDEDRECTD26*%
G04:AMPARAMS|DCode=27|XSize=34.25mil|YSize=36.61mil|CornerRadius=4.28mil|HoleSize=0mil|Usage=FLASHONLY|Rotation=0.000|XOffset=0mil|YOffset=0mil|HoleType=Round|Shape=RoundedRectangle|*
%AMROUNDEDRECTD27*
21,1,0.03425,0.02805,0,0,0.0*
21,1,0.02569,0.03661,0,0,0.0*
1,1,0.00856,0.01284,-0.01403*
1,1,0.00856,-0.01284,-0.01403*
1,1,0.00856,-0.01284,0.01403*
1,1,0.00856,0.01284,0.01403*
%
%ADD27ROUNDEDRECTD27*%
%ADD28R,0.12598X0.05906*%
%ADD29R,0.02095X0.04221*%
G04:AMPARAMS|DCode=30|XSize=35mil|YSize=35mil|CornerRadius=4.38mil|HoleSize=0mil|Usage=FLASHONLY|Rotation=180.000|XOffset=0mil|YOffset=0mil|HoleType=Round|Shape=RoundedRectangle|*
%AMROUNDEDRECTD30*
21,1,0.03500,0.02625,0,0,180.0*
21,1,0.02625,0.03500,0,0,180.0*
1,1,0.00875,-0.01313,0.01313*
1,1,0.00875,0.01313,0.01313*
1,1,0.00875,0.01313,-0.01313*
1,1,0.00875,-0.01313,-0.01313*
%
%ADD30ROUNDEDRECTD30*%
%ADD31R,0.04095X0.04016*%
G36*
X119728Y54539D02*
Y49461D01*
X113272D01*
Y54539D01*
X119728D01*
D02*
G37*
D16*
X47000Y80000D02*
D03*
Y86142D02*
D03*
X93500Y82642D02*
D03*
X87500D02*
D03*
X55500Y86142D02*
D03*
X70000Y26571D02*
D03*
X55500Y80000D02*
D03*
X87500Y76500D02*
D03*
X93500D02*
D03*
X70000Y20429D02*
D03*
D17*
X103000Y82642D02*
D03*
Y75650D02*
D03*
D18*
X83500Y102100D02*
D03*
X68500D02*
D03*
X78500Y121500D02*
D03*
X73500D02*
D03*
X68500D02*
D03*
X63500D02*
D03*
X58500D02*
D03*
X53500D02*
D03*
Y102100D02*
D03*
X58500D02*
D03*
X63500D02*
D03*
X83500Y121500D02*
D03*
X78500Y102100D02*
D03*
X73500D02*
D03*
D19*
X119000Y42256D02*
D03*
X109000D02*
D03*
X124000Y61744D02*
D03*
X109000D02*
D03*
X114000D02*
D03*
X119000D02*
D03*
X124000Y42256D02*
D03*
X114000D02*
D03*
D20*
X113429Y31500D02*
D03*
X119571D02*
D03*
D21*
X119992Y24000D02*
D03*
X41500Y64000D02*
D03*
X27996Y44000D02*
D03*
X21004D02*
D03*
X34508Y64000D02*
D03*
X113000Y24000D02*
D03*
D22*
X98228Y18500D02*
D03*
X91772D02*
D03*
D23*
X4173Y86500D02*
D03*
Y66500D02*
D03*
Y61500D02*
D03*
Y81500D02*
D03*
Y76500D02*
D03*
X25827Y86500D02*
D03*
X4173Y71500D02*
D03*
X25827Y81500D02*
D03*
Y76500D02*
D03*
Y71500D02*
D03*
Y66500D02*
D03*
Y61500D02*
D03*
Y56500D02*
D03*
Y51500D02*
D03*
X4173D02*
D03*
Y56500D02*
D03*
D24*
X73154Y68000D02*
D03*
X64846Y64260D02*
D03*
Y71740D02*
D03*
D25*
X55441Y42760D02*
D03*
X45559Y46500D02*
D03*
X55441Y50240D02*
D03*
X45559Y42760D02*
D03*
Y50240D02*
D03*
D26*
X57240Y18835D02*
D03*
X49760D02*
D03*
Y28165D02*
D03*
X53500D02*
D03*
X57240D02*
D03*
X53500Y18835D02*
D03*
D27*
X41000Y72500D02*
D03*
X34000Y38000D02*
D03*
X34858Y72500D02*
D03*
X40142Y38000D02*
D03*
D28*
X93000Y58535D02*
D03*
Y42000D02*
D03*
D29*
X80500Y20000D02*
D03*
X84240D02*
D03*
Y29047D02*
D03*
X80500D02*
D03*
X76760D02*
D03*
Y20000D02*
D03*
D30*
X64000Y26500D02*
D03*
Y20500D02*
D03*
D31*
X122000Y78500D02*
D03*
X116213D02*
D03*
M02*
