G04*
G04 #@! TF.GenerationSoftware,Altium Limited,Altium Designer,26.1.1 (7)*
G04*
G04 Layer_Color=128*
%FSLAX25Y25*%
%MOIN*%
G70*
G04*
G04 #@! TF.SameCoordinates,0E126E90-0E33-439C-9967-E6331449B6E0*
G04*
G04*
G04 #@! TF.FilePolarity,Positive*
G04*
G01*
G75*
%ADD31R,0.04095X0.04016*%
%ADD72R,0.04016X0.04095*%
%ADD73C,0.08661*%
%ADD74R,0.02205X0.02362*%
%ADD76R,0.02362X0.02205*%
%ADD78R,0.04921X0.02756*%
%ADD79R,0.03189X0.03661*%
G36*
X74042Y132354D02*
X74142Y132353D01*
X74241Y132347D01*
X74340Y132338D01*
X74439Y132324D01*
X74537Y132307D01*
X74634Y132285D01*
X74730Y132259D01*
X74825Y132229D01*
X74919Y132195D01*
X75011Y132157D01*
X75101Y132115D01*
X75190Y132070D01*
X75277Y132020D01*
X75361Y131968D01*
X75443Y131911D01*
X75523Y131852D01*
X75600Y131789D01*
X75674Y131722D01*
X75746Y131653D01*
X75815Y131581D01*
X75880Y131506D01*
X75942Y131428D01*
X76001Y131348D01*
X76057Y131265D01*
X76108Y131180D01*
X76157Y131093D01*
X76201Y131004D01*
X76242Y130913D01*
X76279Y130820D01*
X76312Y130726D01*
X76341Y130631D01*
X76366Y130535D01*
X76387Y130437D01*
X76403Y130339D01*
X76416Y130240D01*
X76424Y130141D01*
X76429Y130041D01*
Y129942D01*
X76424Y129842D01*
X76416Y129743D01*
X76403Y129644D01*
X76387Y129546D01*
X76366Y129449D01*
X76341Y129352D01*
X76312Y129257D01*
X76279Y129163D01*
X76242Y129070D01*
X76201Y128980D01*
X76157Y128890D01*
X76108Y128803D01*
X76057Y128718D01*
X76001Y128636D01*
X75942Y128555D01*
X75880Y128478D01*
X75815Y128402D01*
X75746Y128330D01*
X75674Y128261D01*
X75600Y128195D01*
X75523Y128131D01*
X75443Y128072D01*
X75361Y128015D01*
X75277Y127963D01*
X75190Y127913D01*
X75101Y127868D01*
X75011Y127826D01*
X74919Y127788D01*
X74825Y127754D01*
X74730Y127724D01*
X74634Y127699D01*
X74537Y127677D01*
X74439Y127659D01*
X74340Y127645D01*
X74241Y127636D01*
X74142Y127631D01*
X74042Y127629D01*
X73942Y127633D01*
X73843Y127640D01*
X73744Y127652D01*
X73646Y127667D01*
X73548Y127687D01*
X73452Y127711D01*
X73356Y127739D01*
X73262Y127771D01*
X73169Y127807D01*
X73077Y127847D01*
X72988Y127890D01*
X72900Y127938D01*
X72815Y127989D01*
X72731Y128043D01*
X72650Y128101D01*
X72572Y128163D01*
X72496Y128227D01*
X72423Y128295D01*
X72353Y128366D01*
X72286Y128440D01*
X72222Y128516D01*
X72162Y128595D01*
X72105Y128677D01*
X72051Y128761D01*
X72001Y128847D01*
X71954Y128935D01*
X71912Y129025D01*
X71873Y129116D01*
X71838Y129210D01*
X71807Y129304D01*
X71780Y129400D01*
X71757Y129497D01*
X71738Y129595D01*
X71724Y129694D01*
X71713Y129793D01*
X71707Y129892D01*
X71705Y129992D01*
X71707Y130091D01*
X71713Y130191D01*
X71724Y130290D01*
X71738Y130388D01*
X71757Y130486D01*
X71780Y130583D01*
X71807Y130679D01*
X71838Y130773D01*
X71873Y130867D01*
X71912Y130958D01*
X71954Y131049D01*
X72001Y131137D01*
X72051Y131223D01*
X72105Y131307D01*
X72162Y131388D01*
X72222Y131467D01*
X72286Y131544D01*
X72353Y131617D01*
X72423Y131688D01*
X72496Y131756D01*
X72572Y131821D01*
X72650Y131882D01*
X72731Y131940D01*
X72815Y131995D01*
X72900Y132046D01*
X72988Y132093D01*
X73077Y132137D01*
X73169Y132176D01*
X73262Y132212D01*
X73356Y132244D01*
X73452Y132272D01*
X73548Y132296D01*
X73646Y132316D01*
X73744Y132332D01*
X73843Y132343D01*
X73942Y132351D01*
X74042Y132354D01*
D02*
G37*
G36*
X73272Y136683D02*
X72090D01*
Y133140D01*
X73272D01*
Y136683D01*
D02*
G37*
G36*
X79177D02*
X77996D01*
Y133140D01*
X79177D01*
Y136683D01*
D02*
G37*
G36*
X81146D02*
X79965D01*
Y133140D01*
X81146D01*
Y136683D01*
D02*
G37*
G36*
X83114D02*
X81933D01*
Y133140D01*
X83114D01*
Y136683D01*
D02*
G37*
G36*
X73272Y143770D02*
X72090D01*
Y140226D01*
X73272D01*
Y143770D01*
D02*
G37*
G36*
X79177D02*
X77996D01*
Y140226D01*
X79177D01*
Y143770D01*
D02*
G37*
G36*
X74042Y149284D02*
X74142Y149283D01*
X74241Y149277D01*
X74340Y149268D01*
X74439Y149254D01*
X74537Y149237D01*
X74634Y149215D01*
X74730Y149189D01*
X74825Y149159D01*
X74919Y149125D01*
X75011Y149087D01*
X75101Y149045D01*
X75190Y149000D01*
X75277Y148951D01*
X75361Y148898D01*
X75443Y148841D01*
X75523Y148782D01*
X75600Y148719D01*
X75674Y148652D01*
X75746Y148583D01*
X75815Y148511D01*
X75880Y148436D01*
X75942Y148358D01*
X76001Y148278D01*
X76057Y148195D01*
X76108Y148110D01*
X76157Y148023D01*
X76201Y147934D01*
X76242Y147843D01*
X76279Y147750D01*
X76312Y147656D01*
X76341Y147561D01*
X76366Y147465D01*
X76387Y147367D01*
X76403Y147269D01*
X76416Y147170D01*
X76424Y147071D01*
X76429Y146971D01*
Y146872D01*
X76424Y146772D01*
X76416Y146673D01*
X76403Y146574D01*
X76387Y146476D01*
X76366Y146379D01*
X76341Y146282D01*
X76312Y146187D01*
X76279Y146093D01*
X76242Y146000D01*
X76201Y145910D01*
X76157Y145820D01*
X76108Y145733D01*
X76057Y145648D01*
X76001Y145566D01*
X75942Y145485D01*
X75880Y145407D01*
X75815Y145332D01*
X75746Y145260D01*
X75674Y145191D01*
X75600Y145125D01*
X75523Y145062D01*
X75443Y145002D01*
X75361Y144946D01*
X75277Y144893D01*
X75190Y144843D01*
X75101Y144798D01*
X75011Y144756D01*
X74919Y144718D01*
X74825Y144684D01*
X74730Y144654D01*
X74634Y144629D01*
X74537Y144607D01*
X74439Y144589D01*
X74340Y144575D01*
X74241Y144566D01*
X74142Y144561D01*
X74042Y144560D01*
X73942Y144563D01*
X73843Y144570D01*
X73744Y144581D01*
X73646Y144597D01*
X73548Y144617D01*
X73452Y144641D01*
X73356Y144669D01*
X73262Y144701D01*
X73169Y144737D01*
X73077Y144777D01*
X72988Y144820D01*
X72900Y144868D01*
X72815Y144919D01*
X72731Y144973D01*
X72650Y145031D01*
X72572Y145093D01*
X72496Y145157D01*
X72423Y145225D01*
X72353Y145296D01*
X72286Y145370D01*
X72222Y145446D01*
X72162Y145525D01*
X72105Y145607D01*
X72051Y145691D01*
X72001Y145777D01*
X71954Y145865D01*
X71912Y145955D01*
X71873Y146046D01*
X71838Y146140D01*
X71807Y146234D01*
X71780Y146330D01*
X71757Y146427D01*
X71738Y146525D01*
X71724Y146624D01*
X71713Y146723D01*
X71707Y146822D01*
X71705Y146922D01*
X71707Y147021D01*
X71713Y147121D01*
X71724Y147220D01*
X71738Y147318D01*
X71757Y147416D01*
X71780Y147513D01*
X71807Y147609D01*
X71838Y147704D01*
X71873Y147797D01*
X71912Y147889D01*
X71954Y147978D01*
X72001Y148067D01*
X72051Y148153D01*
X72105Y148237D01*
X72162Y148318D01*
X72222Y148397D01*
X72286Y148474D01*
X72353Y148547D01*
X72423Y148618D01*
X72496Y148686D01*
X72572Y148751D01*
X72650Y148812D01*
X72731Y148870D01*
X72815Y148925D01*
X72900Y148976D01*
X72988Y149023D01*
X73077Y149067D01*
X73169Y149106D01*
X73262Y149142D01*
X73356Y149174D01*
X73452Y149202D01*
X73548Y149226D01*
X73646Y149246D01*
X73744Y149262D01*
X73843Y149273D01*
X73942Y149281D01*
X74042Y149284D01*
D02*
G37*
G36*
X81146Y143770D02*
X79965D01*
Y140226D01*
X81146D01*
Y143770D01*
D02*
G37*
G36*
X83114D02*
X81933D01*
Y140226D01*
X83114D01*
Y143770D01*
D02*
G37*
G36*
X85083Y136683D02*
X83901D01*
Y133140D01*
X85083D01*
Y136683D01*
D02*
G37*
G36*
X87051D02*
X85870D01*
Y133140D01*
X87051D01*
Y136683D01*
D02*
G37*
G36*
X89020D02*
X87839D01*
Y133140D01*
X89020D01*
Y136683D01*
D02*
G37*
G36*
X92940Y132354D02*
X93040Y132353D01*
X93139Y132347D01*
X93238Y132338D01*
X93337Y132324D01*
X93435Y132307D01*
X93532Y132285D01*
X93628Y132259D01*
X93723Y132229D01*
X93817Y132195D01*
X93909Y132157D01*
X93999Y132115D01*
X94088Y132070D01*
X94175Y132020D01*
X94259Y131968D01*
X94341Y131911D01*
X94421Y131852D01*
X94498Y131789D01*
X94573Y131722D01*
X94644Y131653D01*
X94713Y131581D01*
X94778Y131506D01*
X94840Y131428D01*
X94899Y131348D01*
X94955Y131265D01*
X95007Y131180D01*
X95055Y131093D01*
X95099Y131004D01*
X95140Y130913D01*
X95177Y130820D01*
X95210Y130726D01*
X95239Y130631D01*
X95264Y130535D01*
X95285Y130437D01*
X95301Y130339D01*
X95314Y130240D01*
X95322Y130141D01*
X95327Y130041D01*
Y129942D01*
X95322Y129842D01*
X95314Y129743D01*
X95301Y129644D01*
X95285Y129546D01*
X95264Y129449D01*
X95239Y129352D01*
X95210Y129257D01*
X95177Y129163D01*
X95140Y129070D01*
X95099Y128980D01*
X95055Y128890D01*
X95007Y128803D01*
X94955Y128718D01*
X94899Y128636D01*
X94840Y128555D01*
X94778Y128478D01*
X94713Y128402D01*
X94644Y128330D01*
X94573Y128261D01*
X94498Y128195D01*
X94421Y128131D01*
X94341Y128072D01*
X94259Y128015D01*
X94175Y127963D01*
X94088Y127913D01*
X93999Y127868D01*
X93909Y127826D01*
X93817Y127788D01*
X93723Y127754D01*
X93628Y127724D01*
X93532Y127699D01*
X93435Y127677D01*
X93337Y127659D01*
X93238Y127645D01*
X93139Y127636D01*
X93040Y127631D01*
X92940Y127629D01*
X92840Y127633D01*
X92741Y127640D01*
X92642Y127652D01*
X92544Y127667D01*
X92446Y127687D01*
X92349Y127711D01*
X92254Y127739D01*
X92160Y127771D01*
X92067Y127807D01*
X91975Y127847D01*
X91886Y127890D01*
X91798Y127938D01*
X91713Y127989D01*
X91629Y128043D01*
X91548Y128101D01*
X91470Y128163D01*
X91394Y128227D01*
X91321Y128295D01*
X91251Y128366D01*
X91184Y128440D01*
X91120Y128516D01*
X91060Y128595D01*
X91003Y128677D01*
X90949Y128761D01*
X90899Y128847D01*
X90852Y128935D01*
X90810Y129025D01*
X90771Y129116D01*
X90736Y129210D01*
X90705Y129304D01*
X90678Y129400D01*
X90655Y129497D01*
X90636Y129595D01*
X90622Y129694D01*
X90611Y129793D01*
X90605Y129892D01*
X90603Y129992D01*
X90605Y130091D01*
X90611Y130191D01*
X90622Y130290D01*
X90636Y130388D01*
X90655Y130486D01*
X90678Y130583D01*
X90705Y130679D01*
X90736Y130773D01*
X90771Y130867D01*
X90810Y130958D01*
X90852Y131049D01*
X90899Y131137D01*
X90949Y131223D01*
X91003Y131307D01*
X91060Y131388D01*
X91120Y131467D01*
X91184Y131544D01*
X91251Y131617D01*
X91321Y131688D01*
X91394Y131756D01*
X91470Y131821D01*
X91548Y131882D01*
X91629Y131940D01*
X91713Y131995D01*
X91798Y132046D01*
X91886Y132093D01*
X91975Y132137D01*
X92067Y132176D01*
X92160Y132212D01*
X92254Y132244D01*
X92349Y132272D01*
X92446Y132296D01*
X92544Y132316D01*
X92642Y132332D01*
X92741Y132343D01*
X92840Y132351D01*
X92940Y132354D01*
D02*
G37*
G36*
X94925Y136683D02*
X93744D01*
Y133140D01*
X94925D01*
Y136683D01*
D02*
G37*
G36*
X85083Y143770D02*
X83901D01*
Y140226D01*
X85083D01*
Y143770D01*
D02*
G37*
G36*
X87051D02*
X85870D01*
Y140226D01*
X87051D01*
Y143770D01*
D02*
G37*
G36*
X89020D02*
X87839D01*
Y140226D01*
X89020D01*
Y143770D01*
D02*
G37*
G36*
X94925D02*
X93744D01*
Y140226D01*
X94925D01*
Y143770D01*
D02*
G37*
G36*
X92940Y149284D02*
X93040Y149283D01*
X93139Y149277D01*
X93238Y149268D01*
X93337Y149254D01*
X93435Y149237D01*
X93532Y149215D01*
X93628Y149189D01*
X93723Y149159D01*
X93817Y149125D01*
X93909Y149087D01*
X93999Y149045D01*
X94088Y149000D01*
X94175Y148951D01*
X94259Y148898D01*
X94341Y148841D01*
X94421Y148782D01*
X94498Y148719D01*
X94573Y148652D01*
X94644Y148583D01*
X94713Y148511D01*
X94778Y148436D01*
X94840Y148358D01*
X94899Y148278D01*
X94955Y148195D01*
X95007Y148110D01*
X95055Y148023D01*
X95099Y147934D01*
X95140Y147843D01*
X95177Y147750D01*
X95210Y147656D01*
X95239Y147561D01*
X95264Y147465D01*
X95285Y147367D01*
X95301Y147269D01*
X95314Y147170D01*
X95322Y147071D01*
X95327Y146971D01*
Y146872D01*
X95322Y146772D01*
X95314Y146673D01*
X95301Y146574D01*
X95285Y146476D01*
X95264Y146379D01*
X95239Y146282D01*
X95210Y146187D01*
X95177Y146093D01*
X95140Y146000D01*
X95099Y145910D01*
X95055Y145820D01*
X95007Y145733D01*
X94955Y145648D01*
X94899Y145566D01*
X94840Y145485D01*
X94778Y145407D01*
X94713Y145332D01*
X94644Y145260D01*
X94573Y145191D01*
X94498Y145125D01*
X94421Y145062D01*
X94341Y145002D01*
X94259Y144946D01*
X94175Y144893D01*
X94088Y144843D01*
X93999Y144798D01*
X93909Y144756D01*
X93817Y144718D01*
X93723Y144684D01*
X93628Y144654D01*
X93532Y144629D01*
X93435Y144607D01*
X93337Y144589D01*
X93238Y144575D01*
X93139Y144566D01*
X93040Y144561D01*
X92940Y144560D01*
X92840Y144563D01*
X92741Y144570D01*
X92642Y144581D01*
X92544Y144597D01*
X92446Y144617D01*
X92349Y144641D01*
X92254Y144669D01*
X92160Y144701D01*
X92067Y144737D01*
X91975Y144777D01*
X91886Y144820D01*
X91798Y144868D01*
X91713Y144919D01*
X91629Y144973D01*
X91548Y145031D01*
X91470Y145093D01*
X91394Y145157D01*
X91321Y145225D01*
X91251Y145296D01*
X91184Y145370D01*
X91120Y145446D01*
X91060Y145525D01*
X91003Y145607D01*
X90949Y145691D01*
X90899Y145777D01*
X90852Y145865D01*
X90810Y145955D01*
X90771Y146046D01*
X90736Y146140D01*
X90705Y146234D01*
X90678Y146330D01*
X90655Y146427D01*
X90636Y146525D01*
X90622Y146624D01*
X90611Y146723D01*
X90605Y146822D01*
X90603Y146922D01*
X90605Y147021D01*
X90611Y147121D01*
X90622Y147220D01*
X90636Y147318D01*
X90655Y147416D01*
X90678Y147513D01*
X90705Y147609D01*
X90736Y147704D01*
X90771Y147797D01*
X90810Y147889D01*
X90852Y147978D01*
X90899Y148067D01*
X90949Y148153D01*
X91003Y148237D01*
X91060Y148318D01*
X91120Y148397D01*
X91184Y148474D01*
X91251Y148547D01*
X91321Y148618D01*
X91394Y148686D01*
X91470Y148751D01*
X91548Y148812D01*
X91629Y148870D01*
X91713Y148925D01*
X91798Y148976D01*
X91886Y149023D01*
X91975Y149067D01*
X92067Y149106D01*
X92160Y149142D01*
X92254Y149174D01*
X92349Y149202D01*
X92446Y149226D01*
X92544Y149246D01*
X92642Y149262D01*
X92741Y149273D01*
X92840Y149281D01*
X92940Y149284D01*
D02*
G37*
D31*
X99106Y20500D02*
D03*
X104894D02*
D03*
X23892Y55000D02*
D03*
X18105D02*
D03*
X25713Y11000D02*
D03*
X31500D02*
D03*
D72*
X36500Y27678D02*
D03*
Y33466D02*
D03*
X121000Y55466D02*
D03*
Y49678D02*
D03*
D73*
X66999Y51736D02*
D03*
Y61579D02*
D03*
Y81264D02*
D03*
Y71421D02*
D03*
D74*
X112000Y138500D02*
D03*
X108575D02*
D03*
D76*
X59000Y134787D02*
D03*
Y138213D02*
D03*
D78*
X65500Y14500D02*
D03*
X57626Y18240D02*
D03*
Y10760D02*
D03*
D79*
X42811Y11000D02*
D03*
X49189D02*
D03*
M02*
