G04*
G04 #@! TF.GenerationSoftware,Altium Limited,Altium Designer,26.1.1 (7)*
G04*
G04 Layer_Physical_Order=2*
G04 Layer_Color=16711680*
%FSLAX25Y25*%
%MOIN*%
G70*
G04*
G04 #@! TF.SameCoordinates,0E126E90-0E33-439C-9967-E6331449B6E0*
G04*
G04*
G04 #@! TF.FilePolarity,Positive*
G04*
G01*
G75*
%ADD12C,0.00787*%
%ADD13C,0.01000*%
%ADD31R,0.04095X0.04016*%
%ADD60C,0.01575*%
%ADD61C,0.02756*%
%ADD62C,0.06299*%
%ADD63R,0.06299X0.06299*%
%ADD64C,0.07087*%
%ADD65R,0.05150X0.05150*%
%ADD66C,0.05150*%
%ADD67C,0.02559*%
%ADD68C,0.04724*%
%ADD69C,0.09843*%
%ADD70R,0.07087X0.07087*%
%ADD71C,0.02362*%
%ADD72R,0.04016X0.04095*%
%ADD73C,0.08661*%
%ADD74R,0.02205X0.02362*%
%ADD75R,0.01378X0.03543*%
%ADD76R,0.02362X0.02205*%
%ADD77R,0.01181X0.03543*%
%ADD78R,0.04921X0.02756*%
%ADD79R,0.03189X0.03661*%
G36*
X78257Y151639D02*
X78329Y151510D01*
X78544Y150894D01*
X77650Y149014D01*
X76946Y148909D01*
X76506Y148936D01*
X76001Y149442D01*
X75283Y149857D01*
X74482Y150071D01*
X73652D01*
X72851Y149857D01*
X72133Y149442D01*
X71547Y148855D01*
X71132Y148137D01*
X70917Y147336D01*
Y146507D01*
X71114Y145772D01*
X71120Y145620D01*
X71067Y145246D01*
X70613Y144606D01*
X63106D01*
Y150335D01*
X64665Y151894D01*
X77998D01*
X78257Y151639D01*
D02*
G37*
G36*
X110394Y150835D02*
Y145819D01*
X109843Y145531D01*
X109394Y145462D01*
X103886Y150970D01*
X104269Y151894D01*
X109335D01*
X110394Y150835D01*
D02*
G37*
G36*
X107262Y143881D02*
Y140469D01*
X106685D01*
Y136531D01*
X109898D01*
Y136319D01*
X110394D01*
Y134167D01*
X109000Y132772D01*
X105724Y136049D01*
X105203Y136397D01*
X104588Y136519D01*
X104588Y136519D01*
X100680D01*
X100453Y136787D01*
X100129Y137519D01*
X100347Y138046D01*
Y138868D01*
X100032Y139627D01*
X99451Y140209D01*
X98691Y140524D01*
X97869D01*
X97109Y140209D01*
X97032Y140131D01*
X96032Y140546D01*
Y141500D01*
X94343D01*
X92654D01*
Y139228D01*
X92737D01*
Y137685D01*
X92654D01*
Y135413D01*
X94342D01*
Y134413D01*
X92654D01*
Y133141D01*
X92550D01*
X91749Y132927D01*
X91031Y132512D01*
X90774Y132255D01*
X89815Y132710D01*
Y137472D01*
X89641D01*
Y139441D01*
X89815D01*
Y144203D01*
X90774Y144658D01*
X91031Y144401D01*
X91749Y143987D01*
X92550Y143772D01*
X92654D01*
Y142500D01*
X94343D01*
X96032D01*
Y144771D01*
X96032D01*
X95912Y145621D01*
X95917Y145772D01*
X96114Y146507D01*
Y147336D01*
X95900Y148137D01*
X95485Y148855D01*
X95228Y149113D01*
X95642Y150113D01*
X101031D01*
X107262Y143881D01*
D02*
G37*
G36*
X39839Y146341D02*
X40358Y145443D01*
X41091Y144710D01*
X41453Y144501D01*
Y143346D01*
X41091Y143137D01*
X40358Y142404D01*
X39839Y141506D01*
X39571Y140505D01*
Y139618D01*
X39409Y139509D01*
X38477Y138577D01*
X37854Y139200D01*
X36957Y139718D01*
X35955Y139986D01*
X34919D01*
X33917Y139718D01*
X33020Y139200D01*
X32287Y138467D01*
X32077Y138104D01*
X30923D01*
X30713Y138467D01*
X29980Y139200D01*
X29083Y139718D01*
X28081Y139986D01*
X27045D01*
X26043Y139718D01*
X25146Y139200D01*
X24413Y138467D01*
X23894Y137569D01*
X23626Y136568D01*
Y135531D01*
X23894Y134530D01*
X24413Y133632D01*
X25146Y132899D01*
X26043Y132380D01*
X26885Y132155D01*
X27140Y131661D01*
X27256Y131112D01*
X25438Y129294D01*
X21245D01*
X20541Y130004D01*
X20598Y136207D01*
X21012Y136318D01*
X21910Y136836D01*
X22643Y137569D01*
X23161Y138467D01*
X23429Y139468D01*
Y140505D01*
X23161Y141506D01*
X22643Y142404D01*
X21910Y143137D01*
X21547Y143346D01*
Y144501D01*
X21910Y144710D01*
X22643Y145443D01*
X23161Y146341D01*
X23216Y146548D01*
X39784D01*
X39839Y146341D01*
D02*
G37*
G36*
X58341Y156480D02*
X58148Y156351D01*
X58148Y156351D01*
X49148Y147352D01*
X48887Y146961D01*
X48796Y146500D01*
X48796Y146500D01*
Y135499D01*
X38797Y125500D01*
X28091Y114794D01*
X27672Y115036D01*
X26570Y115331D01*
X25430D01*
X24328Y115036D01*
X23341Y114465D01*
X22535Y113659D01*
X21964Y112672D01*
X21669Y111570D01*
Y110430D01*
X21964Y109328D01*
X22535Y108341D01*
X23341Y107535D01*
X24328Y106964D01*
X25430Y106669D01*
X26570D01*
X27672Y106964D01*
X28659Y107535D01*
X29465Y108341D01*
X30036Y109328D01*
X30331Y110430D01*
Y111570D01*
X30036Y112672D01*
X29794Y113091D01*
X43703Y127000D01*
D01*
X50852Y134149D01*
X50852Y134149D01*
X51113Y134539D01*
X51204Y135000D01*
X51204Y135000D01*
Y146001D01*
X59499Y154296D01*
X61219D01*
X61601Y153372D01*
X60365Y152135D01*
X60017Y151614D01*
X59894Y151000D01*
X59894Y151000D01*
Y144606D01*
X56500D01*
X55885Y144483D01*
X55365Y144135D01*
X55365Y144135D01*
X52865Y141635D01*
X52517Y141114D01*
X52394Y140500D01*
X52394Y140500D01*
Y135710D01*
X52394Y135710D01*
X52517Y135095D01*
X52865Y134574D01*
X53787Y133652D01*
X53787Y133652D01*
X54308Y133304D01*
X54922Y133182D01*
X56819D01*
Y132685D01*
X58500D01*
Y134787D01*
X59500D01*
Y132685D01*
X61181D01*
Y132796D01*
X62110Y133166D01*
X67934Y127000D01*
D01*
D01*
X68483Y126418D01*
D01*
X69176Y125684D01*
X69724Y125104D01*
X69723Y125103D01*
X69806Y124995D01*
X69848Y124962D01*
X70194Y124640D01*
X70195Y124639D01*
X70385Y124514D01*
X70386Y124514D01*
X70452Y124470D01*
X70576Y124387D01*
X70582Y124386D01*
X70588Y124382D01*
X70813Y124340D01*
X71036Y124296D01*
X80889D01*
X80889Y124296D01*
X81733Y123532D01*
Y102063D01*
X81733Y102063D01*
X81824Y101602D01*
X80967Y101180D01*
X80852Y101352D01*
X56852Y125352D01*
X56852Y125352D01*
X56629Y125500D01*
X56461Y125613D01*
X56000Y125704D01*
X56000Y125704D01*
X50080D01*
X49615Y126169D01*
X48892Y126469D01*
X48108D01*
X47385Y126169D01*
X46831Y125615D01*
X46784Y125500D01*
X46532Y124892D01*
Y124108D01*
X46831Y123385D01*
X47385Y122831D01*
X48108Y122531D01*
X48892D01*
X49615Y122831D01*
X50080Y123296D01*
X55501D01*
X78796Y100001D01*
Y97176D01*
X77891Y96469D01*
X77108D01*
X76385Y96169D01*
X76275Y96058D01*
X75191Y96114D01*
X75097Y96187D01*
X74615Y96669D01*
X73892Y96969D01*
X73108D01*
X72385Y96669D01*
X71920Y96204D01*
X31138D01*
X30331Y96669D01*
X30331Y97204D01*
Y105331D01*
X21669D01*
Y97204D01*
X21669Y96669D01*
X20862Y96204D01*
X18355D01*
X18087Y97204D01*
X18659Y97535D01*
X19465Y98341D01*
X20036Y99328D01*
X20331Y100430D01*
Y101570D01*
X20036Y102672D01*
X19465Y103659D01*
X18659Y104465D01*
X17672Y105036D01*
X16570Y105331D01*
X15430D01*
X14328Y105036D01*
X13341Y104465D01*
X12535Y103659D01*
X11964Y102672D01*
X11669Y101570D01*
Y100430D01*
X11964Y99328D01*
X12535Y98341D01*
X13341Y97535D01*
X13913Y97204D01*
X13645Y96204D01*
X8691D01*
X8691Y96204D01*
X8230Y96113D01*
X7840Y95851D01*
X7096Y95108D01*
X6905Y95020D01*
X6501Y94996D01*
X5600Y95825D01*
Y114637D01*
X6500Y115272D01*
Y117500D01*
Y119728D01*
X5600Y120363D01*
Y122744D01*
X9525Y126669D01*
X25981D01*
X26484Y126769D01*
X26909Y127053D01*
X32887Y133031D01*
X33020Y132899D01*
X33917Y132380D01*
X34919Y132112D01*
X35955D01*
X36957Y132380D01*
X37854Y132899D01*
X38587Y133632D01*
X39106Y134530D01*
X39374Y135531D01*
Y135886D01*
X39747Y136135D01*
X40769Y137157D01*
X41091Y136836D01*
X41988Y136318D01*
X42990Y136049D01*
X44026D01*
X45028Y136318D01*
X45925Y136836D01*
X46658Y137569D01*
X47177Y138467D01*
X47445Y139468D01*
Y140505D01*
X47177Y141506D01*
X46658Y142404D01*
X45925Y143137D01*
X45563Y143346D01*
Y144501D01*
X45925Y144710D01*
X46658Y145443D01*
X47177Y146341D01*
X47445Y147342D01*
Y148379D01*
X47177Y149380D01*
X46658Y150278D01*
X45925Y151011D01*
X45028Y151529D01*
X44026Y151797D01*
X42990D01*
X41988Y151529D01*
X41091Y151011D01*
X40358Y150278D01*
X39839Y149380D01*
X39784Y149173D01*
X23216D01*
X23161Y149380D01*
X22643Y150278D01*
X21910Y151011D01*
X21012Y151529D01*
X20740Y151602D01*
X20794Y157480D01*
X58166D01*
X58341Y156480D01*
D02*
G37*
G36*
X68029Y140394D02*
X67581Y140209D01*
X67000Y139627D01*
X66685Y138868D01*
Y138046D01*
X67000Y137286D01*
X67581Y136704D01*
X68341Y136390D01*
X69163D01*
X69923Y136704D01*
X70000Y136782D01*
X71000Y136367D01*
Y135413D01*
X72689D01*
Y134413D01*
X71000D01*
Y132142D01*
X71000D01*
X71120Y131293D01*
X71114Y131142D01*
X70917Y130406D01*
Y129577D01*
X71132Y128776D01*
X71426Y128266D01*
X70619Y127665D01*
X62566Y136190D01*
Y136379D01*
X62566Y136379D01*
X62475Y136840D01*
X62214Y137231D01*
X62214Y137231D01*
X61522Y137922D01*
X61358Y138032D01*
X61201Y138152D01*
X60969Y138266D01*
Y140102D01*
X58073D01*
X57508Y141102D01*
X57684Y141394D01*
X67830D01*
X68029Y140394D01*
D02*
G37*
G36*
X119500Y127000D02*
X137795D01*
Y12500D01*
X108593D01*
X108210Y13424D01*
X109887Y15100D01*
X110500Y14846D01*
Y17000D01*
X111000D01*
Y17500D01*
X113154D01*
X112849Y18236D01*
X112235Y18849D01*
X111434Y19181D01*
X111090D01*
X109856Y20415D01*
X109335Y20763D01*
X108721Y20885D01*
X107941Y21475D01*
Y23508D01*
X105394D01*
Y20500D01*
Y17492D01*
X106431D01*
X106813Y16568D01*
X102745Y12500D01*
X77771D01*
X74681Y15590D01*
Y15934D01*
X74349Y16736D01*
X73735Y17349D01*
X73000Y17654D01*
Y15500D01*
X72500D01*
Y15000D01*
X70346D01*
X70651Y14265D01*
X71264Y13651D01*
X71629Y13500D01*
X71430Y12500D01*
X68748D01*
Y16665D01*
X64874D01*
X64491Y17589D01*
X72775Y25873D01*
X73059Y26299D01*
X73159Y26801D01*
Y32448D01*
X74203Y33493D01*
X74322Y33572D01*
X74606Y33998D01*
X74706Y34500D01*
X74606Y35002D01*
X74322Y35428D01*
X74203Y35507D01*
X72126Y37584D01*
X71869Y37969D01*
X69117Y40721D01*
X69532Y41721D01*
X73425D01*
X73425Y41721D01*
X73886Y41813D01*
X74277Y42074D01*
X86580Y54377D01*
X87688Y54071D01*
X87724Y53927D01*
X78149Y44352D01*
X77887Y43961D01*
X77796Y43500D01*
X77796Y43500D01*
Y35707D01*
X77796Y35707D01*
X77887Y35246D01*
X78149Y34855D01*
X88724Y24280D01*
Y20500D01*
X88816Y20039D01*
X89077Y19648D01*
X89467Y19387D01*
X89928Y19296D01*
X96272D01*
Y17705D01*
X101847D01*
Y17492D01*
X104394D01*
Y20500D01*
Y23508D01*
X104265D01*
X104212Y23775D01*
X103864Y24296D01*
X103864Y24296D01*
X102941Y25218D01*
X102420Y25566D01*
X101806Y25688D01*
X101806Y25688D01*
X98566D01*
X84606Y39648D01*
Y41521D01*
X84849Y41765D01*
X85154Y42500D01*
X83000D01*
Y43500D01*
X85154D01*
X84849Y44236D01*
X84236Y44849D01*
X83692Y45074D01*
X83400Y45857D01*
X83384Y46181D01*
X90351Y53149D01*
X90351Y53149D01*
X90613Y53539D01*
X90704Y54000D01*
Y125500D01*
Y126505D01*
Y127000D01*
X91561D01*
X91704Y127083D01*
X91749Y127057D01*
X92550Y126842D01*
X93379D01*
X94181Y127057D01*
X94899Y127471D01*
X95485Y128058D01*
X95900Y128776D01*
X96114Y129577D01*
Y130406D01*
X95917Y131142D01*
X95912Y131293D01*
X96031Y132142D01*
X96031D01*
Y133308D01*
X103923D01*
X105065Y132166D01*
X105060Y132158D01*
X104938Y131543D01*
X104938Y131543D01*
Y129522D01*
X104651Y129235D01*
X104346Y128500D01*
X106500D01*
Y128000D01*
X107000D01*
Y125846D01*
X107736Y126151D01*
X108349Y126765D01*
X108447Y127000D01*
X108681Y127566D01*
Y127940D01*
X108893Y128576D01*
X109529Y129001D01*
X109614Y129018D01*
X110135Y129366D01*
X113135Y132366D01*
X113483Y132887D01*
X113606Y133502D01*
X113606Y133502D01*
Y135395D01*
X113796Y135473D01*
X114796Y134799D01*
Y126999D01*
X113797Y126000D01*
D01*
X110802Y123005D01*
X110520Y123169D01*
X109518Y123437D01*
X108482D01*
X107480Y123169D01*
X106583Y122650D01*
X105850Y121917D01*
X105331Y121020D01*
X105063Y120018D01*
Y118982D01*
X105331Y117980D01*
X105850Y117083D01*
X106583Y116350D01*
X107480Y115831D01*
X108482Y115563D01*
X109518D01*
X110520Y115831D01*
X111417Y116350D01*
X112150Y117083D01*
X112669Y117980D01*
X112937Y118982D01*
Y120018D01*
X112669Y121020D01*
X112505Y121302D01*
X116851Y125648D01*
X116851Y125648D01*
X117113Y126039D01*
X117204Y126500D01*
Y155039D01*
X117204Y155039D01*
X117113Y155500D01*
X116851Y155890D01*
X116851Y155890D01*
X116390Y156351D01*
X116198Y156480D01*
X116373Y157480D01*
X119500D01*
Y127000D01*
D02*
G37*
G36*
X88296Y110719D02*
X87296Y110416D01*
X87277Y110444D01*
X87277Y110444D01*
X85716Y112005D01*
Y127000D01*
X88296D01*
Y110719D01*
D02*
G37*
G36*
X82296Y100429D02*
Y57999D01*
X70001Y45704D01*
X68947D01*
X68815Y46704D01*
X69057Y46769D01*
X70272Y47471D01*
X71265Y48463D01*
X71967Y49679D01*
X72330Y51035D01*
Y51236D01*
X66999D01*
X61669D01*
Y51035D01*
X62032Y49679D01*
X62734Y48463D01*
X63726Y47471D01*
X64942Y46769D01*
X65183Y46704D01*
X65052Y45704D01*
X53463D01*
X47741Y51426D01*
X47350Y51687D01*
X46890Y51779D01*
X46890Y51779D01*
X39188D01*
X38989Y52779D01*
X39115Y52831D01*
X39669Y53385D01*
X39968Y54108D01*
Y54892D01*
X39669Y55615D01*
X39115Y56169D01*
X38392Y56468D01*
X37608D01*
X37545Y56442D01*
X36744Y57244D01*
X36318Y57528D01*
X35816Y57628D01*
X31728D01*
X5600Y83756D01*
Y89766D01*
X6364Y90531D01*
X7147D01*
X7871Y90831D01*
X8425Y91385D01*
X8531Y91643D01*
X9275Y91617D01*
X9566Y91526D01*
X9831Y90885D01*
X10385Y90331D01*
X11108Y90031D01*
X11892D01*
X12615Y90331D01*
X13080Y90796D01*
X75500D01*
X75500Y90796D01*
X75961Y90887D01*
X76351Y91149D01*
X76937Y91734D01*
X76937Y91734D01*
X77085Y91956D01*
X77661Y92532D01*
X77891D01*
X78796Y91824D01*
Y88704D01*
X62000D01*
X62000Y88704D01*
X61539Y88613D01*
X61149Y88352D01*
X61149Y88352D01*
X56148Y83351D01*
X55887Y82961D01*
X55796Y82500D01*
X55796Y82500D01*
Y65580D01*
X55331Y65115D01*
X55032Y64392D01*
Y63608D01*
X55331Y62885D01*
X55885Y62331D01*
X56608Y62032D01*
X57392D01*
X58115Y62331D01*
X58669Y62885D01*
X58969Y63608D01*
Y64392D01*
X58669Y65115D01*
X58204Y65580D01*
Y82001D01*
X62228Y86025D01*
X62724Y85942D01*
X63067Y84871D01*
X62734Y84537D01*
X62032Y83321D01*
X61669Y81966D01*
Y81764D01*
X66999D01*
X72330D01*
Y81966D01*
X71967Y83321D01*
X71265Y84537D01*
X70506Y85296D01*
X70827Y86266D01*
X70849Y86296D01*
X79539D01*
X79539Y86296D01*
X80000Y86387D01*
X80390Y86648D01*
X80852Y87110D01*
X80852Y87110D01*
X81113Y87500D01*
X81204Y87961D01*
X81204Y87961D01*
Y99947D01*
X82204Y100489D01*
X82296Y100429D01*
D02*
G37*
G36*
X26934Y58709D02*
X26434Y57795D01*
X22914D01*
X22625Y58084D01*
X22367Y58469D01*
X19909Y60928D01*
X19483Y61213D01*
X18980Y61313D01*
X3313D01*
Y80917D01*
X4313Y81331D01*
X26934Y58709D01*
D02*
G37*
G36*
X30256Y55388D02*
X30682Y55103D01*
X31184Y55003D01*
X35272D01*
X36031Y54244D01*
Y54108D01*
X36331Y53385D01*
X36885Y52831D01*
X37011Y52779D01*
X36812Y51779D01*
X31206D01*
X31206Y51779D01*
X30745Y51687D01*
X30354Y51426D01*
X30354Y51426D01*
X28707Y49779D01*
X14050D01*
X13706Y50324D01*
X13613Y50757D01*
X15036Y52179D01*
X16597D01*
X16724Y52205D01*
X20939D01*
X20939Y52205D01*
X21057D01*
Y52205D01*
X21939Y52205D01*
X26727D01*
Y57503D01*
X27641Y58003D01*
X30256Y55388D01*
D02*
G37*
G36*
X49365Y42932D02*
X48951Y41932D01*
X39068D01*
X37428Y43572D01*
X37002Y43856D01*
X36500Y43956D01*
X35998Y43856D01*
X35572Y43572D01*
X33932Y41932D01*
X23441D01*
X23059Y42856D01*
X25999Y45796D01*
X29858D01*
X29858Y45796D01*
X30319Y45887D01*
X30710Y46148D01*
X32357Y47796D01*
X44501D01*
X49365Y42932D01*
D02*
G37*
G36*
X15270Y57795D02*
X15270D01*
Y54805D01*
X14492D01*
X13990Y54705D01*
X13564Y54420D01*
X4486Y45342D01*
X4313Y45083D01*
X3553Y45159D01*
X3313Y45249D01*
Y58687D01*
X15010D01*
X15270Y57795D01*
D02*
G37*
G36*
X23244Y46447D02*
X20501Y43704D01*
X14059D01*
X13109Y44704D01*
X13114Y44809D01*
X13187Y44903D01*
X13669Y45385D01*
X13969Y46108D01*
Y46892D01*
X14848Y47371D01*
X22861D01*
X23244Y46447D01*
D02*
G37*
G36*
X4486Y42658D02*
X9572Y37572D01*
X9998Y37287D01*
X10500Y37187D01*
X18289D01*
X18791Y37287D01*
X19217Y37572D01*
X20952Y39307D01*
X34475D01*
X34978Y39406D01*
X35403Y39691D01*
X36500Y40788D01*
X37596Y39691D01*
X38022Y39406D01*
X38525Y39307D01*
X66819D01*
X69756Y36370D01*
X70013Y35985D01*
X71498Y34500D01*
X70918Y33920D01*
X70634Y33494D01*
X70598Y33313D01*
X39295D01*
Y36300D01*
X33705D01*
Y30631D01*
X33705D01*
Y30513D01*
X33705D01*
Y26739D01*
X28841Y21876D01*
X22790D01*
X22356Y22627D01*
X21730Y23253D01*
X20963Y23696D01*
X20108Y23925D01*
X19223D01*
X18368Y23696D01*
X17601Y23253D01*
X16975Y22627D01*
X16532Y21861D01*
X16303Y21006D01*
Y20120D01*
X16532Y19265D01*
X16975Y18499D01*
X17601Y17873D01*
X18368Y17430D01*
X18872Y17295D01*
Y16488D01*
X18972Y15986D01*
X19257Y15560D01*
X21393Y13424D01*
X21010Y12500D01*
X13356D01*
X11470Y14387D01*
Y25187D01*
X16303D01*
Y25075D01*
X23028D01*
Y31799D01*
X16303D01*
Y27813D01*
X3313D01*
Y42751D01*
X3553Y42841D01*
X4313Y42917D01*
X4486Y42658D01*
D02*
G37*
G36*
X81331Y40901D02*
X81394Y40772D01*
Y38983D01*
X81394Y38983D01*
X81517Y38369D01*
X81865Y37848D01*
X95693Y24019D01*
X96272Y23295D01*
X96272D01*
X96272Y23295D01*
Y21704D01*
X91132D01*
Y24779D01*
X91132Y24779D01*
X91041Y25239D01*
X90780Y25630D01*
X80204Y36206D01*
Y40436D01*
X81204Y40982D01*
X81331Y40901D01*
D02*
G37*
G36*
X70534Y27345D02*
X61798Y18609D01*
X60874Y18992D01*
Y20405D01*
X54378D01*
Y19553D01*
X48260D01*
X47758Y19453D01*
X47332Y19168D01*
X45072Y16909D01*
X44787Y16483D01*
X44687Y15980D01*
Y13618D01*
X40429D01*
Y12500D01*
X34335D01*
Y13795D01*
X28665D01*
Y13795D01*
X28547D01*
Y13795D01*
X24734D01*
X21697Y16833D01*
X21730Y17873D01*
X22356Y18499D01*
X22790Y19250D01*
X29385D01*
X29887Y19350D01*
X30313Y19635D01*
X35522Y24844D01*
X39295D01*
Y30513D01*
X40223Y30687D01*
X70534D01*
Y27345D01*
D02*
G37*
G36*
X54378Y16075D02*
X57902D01*
X58395Y15075D01*
X58374Y15044D01*
X58274Y14542D01*
Y12925D01*
X54378D01*
Y12500D01*
X51571D01*
Y13618D01*
X47313D01*
Y15437D01*
X48803Y16928D01*
X54378D01*
Y16075D01*
D02*
G37*
G36*
X1072Y26158D02*
X1658Y25572D01*
X2083Y25287D01*
X2586Y25187D01*
X8845D01*
Y13843D01*
X8913Y13500D01*
X8655Y12961D01*
X8303Y12500D01*
X0D01*
Y25962D01*
X1000Y26265D01*
X1072Y26158D01*
D02*
G37*
%LPC*%
G36*
X16598Y125543D02*
X16500D01*
Y121500D01*
X20543D01*
Y121598D01*
X20234Y122754D01*
X19636Y123790D01*
X18790Y124636D01*
X17754Y125234D01*
X16598Y125543D01*
D02*
G37*
G36*
X15500D02*
X15402D01*
X14246Y125234D01*
X13210Y124636D01*
X12365Y123790D01*
X11766Y122754D01*
X11457Y121598D01*
Y121500D01*
X15500D01*
Y125543D01*
D02*
G37*
G36*
X7500Y119654D02*
Y118000D01*
X9154D01*
X8849Y118736D01*
X8236Y119349D01*
X7500Y119654D01*
D02*
G37*
G36*
X26570Y125331D02*
X25430D01*
X24328Y125036D01*
X23341Y124465D01*
X22535Y123659D01*
X21964Y122672D01*
X21669Y121570D01*
Y120430D01*
X21964Y119328D01*
X22535Y118341D01*
X23341Y117535D01*
X24328Y116964D01*
X25430Y116669D01*
X26570D01*
X27672Y116964D01*
X28659Y117535D01*
X29465Y118341D01*
X30036Y119328D01*
X30331Y120430D01*
Y121570D01*
X30036Y122672D01*
X29465Y123659D01*
X28659Y124465D01*
X27672Y125036D01*
X26570Y125331D01*
D02*
G37*
G36*
X20543Y120500D02*
X16500D01*
Y116457D01*
X16598D01*
X17754Y116766D01*
X18790Y117365D01*
X19636Y118210D01*
X20234Y119246D01*
X20543Y120402D01*
Y120500D01*
D02*
G37*
G36*
X15500D02*
X11457D01*
Y120402D01*
X11766Y119246D01*
X12365Y118210D01*
X13210Y117365D01*
X14246Y116766D01*
X15402Y116457D01*
X15500D01*
Y120500D01*
D02*
G37*
G36*
X9154Y117000D02*
X7500D01*
Y115346D01*
X8236Y115651D01*
X8849Y116264D01*
X9154Y117000D01*
D02*
G37*
G36*
X16570Y115331D02*
X15430D01*
X14328Y115036D01*
X13341Y114465D01*
X12535Y113659D01*
X11964Y112672D01*
X11669Y111570D01*
Y110430D01*
X11964Y109328D01*
X12535Y108341D01*
X13341Y107535D01*
X14328Y106964D01*
X15430Y106669D01*
X16570D01*
X17672Y106964D01*
X18659Y107535D01*
X19465Y108341D01*
X20036Y109328D01*
X20331Y110430D01*
Y111570D01*
X20036Y112672D01*
X19465Y113659D01*
X18659Y114465D01*
X17672Y115036D01*
X16570Y115331D01*
D02*
G37*
G36*
X106000Y127500D02*
X104346D01*
X104553Y127000D01*
X104651Y126765D01*
X105264Y126151D01*
X106000Y125846D01*
Y127500D01*
D02*
G37*
G36*
X133150Y123650D02*
X129500D01*
Y120000D01*
X133150D01*
Y123650D01*
D02*
G37*
G36*
X128500D02*
X124850D01*
Y120000D01*
X128500D01*
Y123650D01*
D02*
G37*
G36*
X99518Y123437D02*
X98482D01*
X97480Y123169D01*
X96583Y122650D01*
X95850Y121917D01*
X95331Y121020D01*
X95063Y120018D01*
Y118982D01*
X95331Y117980D01*
X95850Y117083D01*
X96583Y116350D01*
X97480Y115831D01*
X98482Y115563D01*
X99518D01*
X100520Y115831D01*
X101417Y116350D01*
X102150Y117083D01*
X102669Y117980D01*
X102937Y118982D01*
Y120018D01*
X102669Y121020D01*
X102150Y121917D01*
X101417Y122650D01*
X100520Y123169D01*
X99518Y123437D01*
D02*
G37*
G36*
X133150Y119000D02*
X129500D01*
Y115350D01*
X133150D01*
Y119000D01*
D02*
G37*
G36*
X128500D02*
X124850D01*
Y115350D01*
X128500D01*
Y119000D01*
D02*
G37*
G36*
X119518Y123437D02*
X118482D01*
X117480Y123169D01*
X116583Y122650D01*
X115850Y121917D01*
X115331Y121020D01*
X115063Y120018D01*
Y118982D01*
X115331Y117980D01*
X115850Y117083D01*
X116583Y116350D01*
X116599Y116340D01*
X116763Y115091D01*
X113818Y112145D01*
X113557Y111755D01*
X113516Y111551D01*
X112755Y111327D01*
X112484Y111339D01*
X112150Y111917D01*
X111417Y112650D01*
X110520Y113169D01*
X109518Y113437D01*
X108482D01*
X107480Y113169D01*
X106583Y112650D01*
X105850Y111917D01*
X105331Y111020D01*
X105063Y110018D01*
Y108982D01*
X105331Y107980D01*
X105850Y107083D01*
X106583Y106350D01*
X107480Y105831D01*
X108482Y105563D01*
X109518D01*
X110520Y105831D01*
X111417Y106350D01*
X112150Y107083D01*
X112465Y107628D01*
X113465Y107360D01*
Y92200D01*
X113465Y92200D01*
X113557Y91739D01*
X113818Y91348D01*
X119796Y85370D01*
Y58300D01*
X118205D01*
Y52725D01*
X117992D01*
Y50178D01*
X121000D01*
X124008D01*
Y52725D01*
X123795D01*
Y58300D01*
X122204D01*
Y85869D01*
X122113Y86330D01*
X121852Y86721D01*
X121852Y86721D01*
X115874Y92699D01*
Y105756D01*
X116874Y106182D01*
X117480Y105831D01*
X118482Y105563D01*
X119518D01*
X120520Y105831D01*
X121417Y106350D01*
X122150Y107083D01*
X122669Y107980D01*
X122937Y108982D01*
Y110018D01*
X122669Y111020D01*
X122150Y111917D01*
X121417Y112650D01*
X120520Y113169D01*
X119843Y113350D01*
X119490Y114116D01*
X119476Y114437D01*
X119657Y114708D01*
X119749Y115169D01*
Y115625D01*
X120520Y115831D01*
X121417Y116350D01*
X122150Y117083D01*
X122669Y117980D01*
X122937Y118982D01*
Y120018D01*
X122669Y121020D01*
X122150Y121917D01*
X121417Y122650D01*
X120520Y123169D01*
X119518Y123437D01*
D02*
G37*
G36*
X129518Y113437D02*
X128482D01*
X127480Y113169D01*
X126583Y112650D01*
X125850Y111917D01*
X125331Y111020D01*
X125063Y110018D01*
Y108982D01*
X125331Y107980D01*
X125850Y107083D01*
X126583Y106350D01*
X127480Y105831D01*
X128482Y105563D01*
X129518D01*
X130520Y105831D01*
X131417Y106350D01*
X132150Y107083D01*
X132669Y107980D01*
X132937Y108982D01*
Y110018D01*
X132669Y111020D01*
X132150Y111917D01*
X131417Y112650D01*
X130520Y113169D01*
X129518Y113437D01*
D02*
G37*
G36*
X99518D02*
X98482D01*
X97480Y113169D01*
X96583Y112650D01*
X95850Y111917D01*
X95331Y111020D01*
X95063Y110018D01*
Y108982D01*
X95331Y107980D01*
X95850Y107083D01*
X96583Y106350D01*
X97480Y105831D01*
X98482Y105563D01*
X99518D01*
X100520Y105831D01*
X101417Y106350D01*
X102150Y107083D01*
X102669Y107980D01*
X102937Y108982D01*
Y110018D01*
X102669Y111020D01*
X102150Y111917D01*
X101417Y112650D01*
X100520Y113169D01*
X99518Y113437D01*
D02*
G37*
G36*
X94900Y104254D02*
Y102600D01*
X96554D01*
X96249Y103335D01*
X95635Y103949D01*
X94900Y104254D01*
D02*
G37*
G36*
X93900D02*
X93164Y103949D01*
X92551Y103335D01*
X92246Y102600D01*
X93900D01*
Y104254D01*
D02*
G37*
G36*
X96554Y101600D02*
X94900D01*
Y99946D01*
X95635Y100251D01*
X96249Y100865D01*
X96554Y101600D01*
D02*
G37*
G36*
X93900D02*
X92246D01*
X92551Y100865D01*
X93164Y100251D01*
X93900Y99946D01*
Y101600D01*
D02*
G37*
G36*
X99892Y67968D02*
X99108D01*
X98385Y67669D01*
X97831Y67115D01*
X97531Y66392D01*
Y65608D01*
X97831Y64885D01*
X98385Y64331D01*
X99108Y64031D01*
X99892D01*
X100615Y64331D01*
X101169Y64885D01*
X101469Y65608D01*
Y66392D01*
X101169Y67115D01*
X100615Y67669D01*
X99892Y67968D01*
D02*
G37*
G36*
X129000Y51154D02*
Y49500D01*
X130654D01*
X130349Y50235D01*
X129736Y50849D01*
X129000Y51154D01*
D02*
G37*
G36*
X128000D02*
X127264Y50849D01*
X126651Y50235D01*
X126346Y49500D01*
X128000D01*
Y51154D01*
D02*
G37*
G36*
X130654Y48500D02*
X129000D01*
Y46846D01*
X129736Y47151D01*
X130349Y47765D01*
X130654Y48500D01*
D02*
G37*
G36*
X128000D02*
X126346D01*
X126651Y47765D01*
X127264Y47151D01*
X128000Y46846D01*
Y48500D01*
D02*
G37*
G36*
X124008Y49178D02*
X121500D01*
Y46631D01*
X124008D01*
Y49178D01*
D02*
G37*
G36*
X120500D02*
X117992D01*
Y46631D01*
X120500D01*
Y49178D01*
D02*
G37*
G36*
X109500Y36154D02*
Y34500D01*
X111154D01*
X110849Y35236D01*
X110236Y35849D01*
X109500Y36154D01*
D02*
G37*
G36*
X108500D02*
X107764Y35849D01*
X107151Y35236D01*
X106846Y34500D01*
X108500D01*
Y36154D01*
D02*
G37*
G36*
X111154Y33500D02*
X109500D01*
Y31846D01*
X110236Y32151D01*
X110849Y32765D01*
X111154Y33500D01*
D02*
G37*
G36*
X108500D02*
X106846D01*
X107151Y32765D01*
X107764Y32151D01*
X108500Y31846D01*
Y33500D01*
D02*
G37*
G36*
X124610Y32154D02*
Y30500D01*
X126264D01*
X125959Y31236D01*
X125346Y31849D01*
X124610Y32154D01*
D02*
G37*
G36*
X123610D02*
X122875Y31849D01*
X122261Y31236D01*
X121957Y30500D01*
X123610D01*
Y32154D01*
D02*
G37*
G36*
X126264Y29500D02*
X124610D01*
Y27846D01*
X125346Y28151D01*
X125959Y28765D01*
X126264Y29500D01*
D02*
G37*
G36*
X123610D02*
X121957D01*
X122261Y28765D01*
X122875Y28151D01*
X123610Y27846D01*
Y29500D01*
D02*
G37*
G36*
X72000Y17654D02*
X71264Y17349D01*
X70651Y16736D01*
X70346Y16000D01*
X72000D01*
Y17654D01*
D02*
G37*
G36*
X113154Y16500D02*
X111500D01*
Y14846D01*
X112235Y15151D01*
X112849Y15765D01*
X113154Y16500D01*
D02*
G37*
G36*
X40965Y88296D02*
Y86642D01*
X42619D01*
X42314Y87377D01*
X41700Y87991D01*
X40965Y88296D01*
D02*
G37*
G36*
X39965D02*
X39229Y87991D01*
X38616Y87377D01*
X38311Y86642D01*
X39965D01*
Y88296D01*
D02*
G37*
G36*
X42619Y85642D02*
X40965D01*
Y83988D01*
X41700Y84293D01*
X42314Y84906D01*
X42619Y85642D01*
D02*
G37*
G36*
X39965D02*
X38311D01*
X38616Y84906D01*
X39229Y84293D01*
X39965Y83988D01*
Y85642D01*
D02*
G37*
G36*
X76000Y75654D02*
Y74000D01*
X77654D01*
X77349Y74735D01*
X76736Y75349D01*
X76000Y75654D01*
D02*
G37*
G36*
X75000D02*
X74265Y75349D01*
X73651Y74735D01*
X73346Y74000D01*
X75000D01*
Y75654D01*
D02*
G37*
G36*
X47000Y74654D02*
Y73000D01*
X48654D01*
X48349Y73735D01*
X47736Y74349D01*
X47000Y74654D01*
D02*
G37*
G36*
X46000D02*
X45265Y74349D01*
X44651Y73735D01*
X44346Y73000D01*
X46000D01*
Y74654D01*
D02*
G37*
G36*
X77654Y73000D02*
X76000D01*
Y71346D01*
X76736Y71651D01*
X77349Y72264D01*
X77654Y73000D01*
D02*
G37*
G36*
X75000D02*
X73346D01*
X73651Y72264D01*
X74265Y71651D01*
X75000Y71346D01*
Y73000D01*
D02*
G37*
G36*
X48654Y72000D02*
X47000D01*
Y70346D01*
X47736Y70651D01*
X48349Y71264D01*
X48654Y72000D01*
D02*
G37*
G36*
X46000D02*
X44346D01*
X44651Y71264D01*
X45265Y70651D01*
X46000Y70346D01*
Y72000D01*
D02*
G37*
G36*
X72330Y80764D02*
X66999D01*
X61669D01*
Y80562D01*
X62032Y79206D01*
X62734Y77991D01*
X63726Y76998D01*
X64074Y76797D01*
Y75643D01*
X63857Y75517D01*
X62904Y74564D01*
X62230Y73397D01*
X61881Y72095D01*
Y70748D01*
X62230Y69446D01*
X62904Y68279D01*
X63857Y67326D01*
X64287Y67077D01*
Y65923D01*
X63857Y65674D01*
X62904Y64721D01*
X62230Y63554D01*
X61881Y62253D01*
Y60905D01*
X62230Y59603D01*
X62904Y58436D01*
X63857Y57483D01*
X64074Y57358D01*
Y56203D01*
X63726Y56002D01*
X62734Y55010D01*
X62032Y53794D01*
X61669Y52438D01*
Y52236D01*
X66999D01*
X72330D01*
Y52438D01*
X71967Y53794D01*
X71265Y55010D01*
X70834Y55440D01*
X71327Y56362D01*
X71676Y56292D01*
X77500D01*
X78345Y56460D01*
X79061Y56939D01*
X79540Y57655D01*
X79708Y58500D01*
X79540Y59345D01*
X79061Y60061D01*
X78345Y60540D01*
X77500Y60708D01*
X72591D01*
X72118Y61181D01*
Y62253D01*
X71769Y63554D01*
X71095Y64721D01*
X70142Y65674D01*
X69712Y65923D01*
Y67077D01*
X70142Y67326D01*
X71095Y68279D01*
X71769Y69446D01*
X72118Y70748D01*
Y72095D01*
X71769Y73397D01*
X71095Y74564D01*
X70142Y75517D01*
X69924Y75643D01*
Y76797D01*
X70272Y76998D01*
X71265Y77991D01*
X71967Y79206D01*
X72330Y80562D01*
Y80764D01*
D02*
G37*
%LPD*%
D12*
X70600Y125931D02*
G03*
X70698Y125831I2576J2433D01*
G01*
X89928Y20500D02*
X99106D01*
X121000Y55466D02*
Y85869D01*
X61362Y135712D02*
X70600Y125931D01*
X71036Y125500D02*
X80889D01*
X70698Y125831D02*
X71036Y125500D01*
X81362Y125973D02*
Y130478D01*
X80563Y131278D02*
X81362Y130478D01*
X80889Y125500D02*
X81362Y125973D01*
X80563Y131278D02*
Y134913D01*
X59787Y137504D02*
X60670Y137071D01*
X61362Y136379D01*
Y135712D02*
Y136379D01*
X59000Y138213D02*
X59787Y137504D01*
X7865Y94036D02*
Y94174D01*
X6756Y92500D02*
Y92926D01*
X7865Y94036D01*
Y94174D02*
X8691Y95000D01*
X88000Y129000D02*
X89500Y127500D01*
X79000Y43500D02*
X89500Y54000D01*
Y127500D01*
X79000Y35707D02*
Y43500D01*
Y35707D02*
X89928Y24779D01*
Y20500D02*
Y24779D01*
X84512Y111506D02*
X86425Y109592D01*
X73425Y42925D02*
X86425Y55925D01*
Y109592D01*
X114669Y92200D02*
X121000Y85869D01*
X114669Y92200D02*
Y111294D01*
X118545Y115169D01*
Y119045D01*
X119000Y119500D01*
X109000D02*
X116000Y126500D01*
Y155039D01*
X115539Y155500D02*
X116000Y155039D01*
X59000Y155500D02*
X115539D01*
X50000Y146500D02*
X59000Y155500D01*
X50000Y135000D02*
Y146500D01*
X26000Y111000D02*
X50000Y135000D01*
X82788Y150500D02*
X84697Y148591D01*
X79689Y150500D02*
X82788D01*
X84697Y143839D02*
Y148591D01*
X78791Y142197D02*
Y144291D01*
X78594Y142000D02*
X78791Y142197D01*
Y144291D02*
X82000Y147500D01*
X84697Y143839D02*
X84697Y143839D01*
X84697Y142197D02*
Y143839D01*
X84500Y142000D02*
X84697Y142197D01*
X78478Y147950D02*
X79689Y150500D01*
X56000Y124500D02*
X80000Y100500D01*
X49000Y124500D02*
X56000D01*
X80000Y87961D02*
Y100500D01*
X82937Y102063D02*
Y131131D01*
Y102063D02*
X83500Y101500D01*
Y57500D02*
Y101500D01*
X62000Y87500D02*
X79539D01*
X80000Y87961D01*
X77500Y94074D02*
Y94500D01*
X8691Y95000D02*
X73500D01*
X11500Y92000D02*
X75500D01*
X76085Y92659D02*
X77500Y94074D01*
X75500Y92000D02*
X76085Y92585D01*
Y92659D01*
X88240Y129240D02*
Y134717D01*
X88000Y129000D02*
X88240Y129240D01*
Y134717D02*
X88437Y134913D01*
X11500Y42500D02*
X21000D01*
X25500Y47000D01*
X12000Y46500D02*
Y46752D01*
X13823Y48575D02*
X29206D01*
X12000Y46752D02*
X13823Y48575D01*
X25500Y47000D02*
X29858D01*
X31858Y49000D01*
X29206Y48575D02*
X31206Y50575D01*
X31858Y49000D02*
X45000D01*
X51075Y42925D01*
X31206Y50575D02*
X46890D01*
X52964Y44500D01*
X51075Y42925D02*
X73425D01*
X52964Y44500D02*
X70500D01*
X83500Y57500D01*
X81643Y137866D02*
X82335Y137174D01*
X78696Y137866D02*
X81643D01*
X82335Y135110D02*
Y137174D01*
X76500Y140062D02*
X78696Y137866D01*
X82335Y135110D02*
X82531Y134913D01*
X84512Y111506D02*
Y131783D01*
X78791Y129709D02*
Y134717D01*
Y129709D02*
X79000Y129500D01*
X84500Y131795D02*
X84512Y131783D01*
X84500Y131795D02*
Y134913D01*
X82531Y131536D02*
X82937Y131131D01*
X82531Y131536D02*
Y134913D01*
X78595D02*
X78791Y134717D01*
X76500Y141514D02*
X76823Y144261D01*
X76500Y141330D02*
X76500Y141514D01*
X76500Y140062D02*
Y141330D01*
X76823Y144261D02*
X78478Y147950D01*
X84303Y135110D02*
Y137433D01*
X82532Y139204D02*
X84303Y137433D01*
X82532Y139204D02*
Y142000D01*
X88437Y134913D02*
Y142000D01*
X84303Y135110D02*
X84500Y134913D01*
X57000Y82500D02*
X62000Y87500D01*
X57000Y64000D02*
Y82500D01*
D13*
X10157Y13843D02*
Y26500D01*
Y13843D02*
X19000Y5000D01*
X45414D01*
X46000Y5586D01*
Y15980D01*
X48260Y18240D01*
X57626D01*
X10157Y26500D02*
X17728D01*
X19665Y20563D02*
X29385D01*
X34953Y26131D01*
X34992D01*
X36500Y27639D01*
Y27678D01*
X37966Y32000D02*
X71846D01*
X36500Y33466D02*
X37966Y32000D01*
X71846D02*
Y32992D01*
X66999Y61579D02*
Y71421D01*
X101575Y151425D02*
X108575Y144425D01*
X91425Y151425D02*
X101575D01*
X108575Y138500D02*
Y144425D01*
X86469Y142000D02*
Y146469D01*
X91425Y151425D01*
X8981Y127981D02*
X25981D01*
X34049Y136049D01*
X35437D01*
X35445Y134623D02*
X37885Y137063D01*
X38819D02*
X40337Y138581D01*
X42074Y139986D02*
X43508D01*
X37885Y137063D02*
X38819D01*
X40337Y138581D02*
X40669D01*
X42074Y139986D01*
X2000Y130368D02*
X19492Y147860D01*
X2000Y60000D02*
Y130368D01*
X19492Y147860D02*
X43508D01*
X2000Y60000D02*
X18980D01*
X21439Y57541D01*
Y57413D02*
Y57541D01*
Y57413D02*
X23853Y55000D01*
X23892D01*
X10500Y38500D02*
X18289D01*
X5414Y43586D02*
X10500Y38500D01*
X18289D02*
X20408Y40619D01*
X34475D02*
X36500Y42644D01*
X20408Y40619D02*
X34475D01*
X5414Y43586D02*
Y44414D01*
X14492Y53492D01*
X16597D01*
X18105Y55000D01*
X2000Y27086D02*
Y60000D01*
Y27086D02*
X2586Y26500D01*
X17728D02*
X19665Y28437D01*
X2586Y26500D02*
X10157D01*
X19665Y20563D02*
X20185Y20043D01*
Y16488D02*
Y20043D01*
X25673Y11000D02*
X25713D01*
X20185Y16488D02*
X25673Y11000D01*
X65500Y8500D02*
Y14500D01*
X60953Y3953D02*
X65500Y8500D01*
X56000Y3953D02*
X60953D01*
X49189Y10764D02*
X56000Y3953D01*
X49189Y10764D02*
Y11000D01*
X57626Y10760D02*
X58709D01*
X59587Y11638D01*
Y14542D01*
X71846Y26801D01*
Y32000D01*
Y32992D02*
X73354Y34500D01*
X73394D01*
X36500Y42644D02*
X38525Y40619D01*
X67363D01*
X70941Y37041D01*
Y36913D02*
Y37041D01*
Y36913D02*
X73354Y34500D01*
X4287Y83213D02*
X31184Y56316D01*
X35816D01*
X37631Y54500D01*
X38000D01*
X31500Y11000D02*
X42811D01*
X4287Y123287D02*
X8981Y127981D01*
X4287Y83213D02*
Y123287D01*
D31*
X99106Y20500D02*
D03*
X104894D02*
D03*
X23892Y55000D02*
D03*
X18105D02*
D03*
X25713Y11000D02*
D03*
X31500D02*
D03*
D60*
X72500Y15500D02*
X78000Y10000D01*
X102516D01*
X109365Y16849D01*
X101806Y24083D02*
X102728Y23160D01*
X110849Y16849D02*
X111000Y17000D01*
X108721Y19279D02*
X111000Y17000D01*
X83000Y38983D02*
X97900Y24083D01*
X102728Y22626D02*
X104854Y20500D01*
X104894D01*
X106114Y19279D01*
X109365Y16849D02*
X110849D01*
X102728Y22626D02*
Y23160D01*
X106114Y19279D02*
X108721D01*
X97900Y24083D02*
X101806D01*
X83000Y38983D02*
Y43000D01*
X112000Y138500D02*
Y151500D01*
X110000Y153500D02*
X112000Y151500D01*
Y133502D02*
Y138500D01*
X109000Y130502D02*
X112000Y133502D01*
X107251Y132251D02*
X109000Y130502D01*
X104588Y134913D02*
X107251Y132251D01*
X106543Y131543D02*
X107251Y132251D01*
X94342Y134913D02*
X104588D01*
X106543Y128043D02*
Y131543D01*
X106500Y128000D02*
X106543Y128043D01*
X94342Y142000D02*
X94343Y142000D01*
X94342Y134914D02*
Y142000D01*
X75393Y73500D02*
X75500D01*
X71705Y142984D02*
X72591D01*
X72689Y142886D01*
X71689Y143000D02*
X71705Y142984D01*
X72689Y142000D02*
X72689Y142000D01*
Y142886D01*
X61500Y151000D02*
X64000Y153500D01*
X110000D01*
X56500Y143000D02*
X61500D01*
X71689D01*
X61500D02*
Y151000D01*
X72689Y134913D02*
Y142000D01*
X72689Y134913D02*
X72689Y134913D01*
X54922Y134787D02*
X59000D01*
X54000Y140500D02*
X56500Y143000D01*
X54000Y135710D02*
X54922Y134787D01*
X54000Y135710D02*
Y140500D01*
X40465Y86142D02*
X40615Y85991D01*
X99425Y65925D02*
X99500Y66000D01*
D61*
X66999Y61579D02*
X68597D01*
X71676Y58500D01*
X77500D01*
D62*
X19492Y147860D02*
D03*
Y139986D02*
D03*
X43508Y147860D02*
D03*
Y139986D02*
D03*
X27563Y136049D02*
D03*
X35437D02*
D03*
X119000Y119500D02*
D03*
X99000Y109500D02*
D03*
Y119500D02*
D03*
X109000Y109500D02*
D03*
Y119500D02*
D03*
X119000Y109500D02*
D03*
X129000D02*
D03*
D63*
Y119500D02*
D03*
D64*
X16000Y121000D02*
D03*
Y101000D02*
D03*
X26000Y111000D02*
D03*
X16000D02*
D03*
X26000Y121000D02*
D03*
D65*
X19665Y28437D02*
D03*
D66*
Y20563D02*
D03*
D67*
X98280Y138457D02*
D03*
X68752D02*
D03*
D68*
X92965Y146922D02*
D03*
X74067D02*
D03*
X92965Y129992D02*
D03*
X74067D02*
D03*
D69*
X6500Y151000D02*
D03*
X131500Y6000D02*
D03*
X6500D02*
D03*
X131500Y151000D02*
D03*
D70*
X26000Y101000D02*
D03*
D71*
X111000Y17000D02*
D03*
X106500Y128000D02*
D03*
X128500Y49000D02*
D03*
X94400Y102100D02*
D03*
X75500Y73500D02*
D03*
X124110Y30000D02*
D03*
X109000Y34000D02*
D03*
X83000Y43000D02*
D03*
X7000Y117500D02*
D03*
X40465Y86142D02*
D03*
X72500Y15500D02*
D03*
X46500Y72500D02*
D03*
X77500Y58500D02*
D03*
X6756Y92500D02*
D03*
X82000Y147500D02*
D03*
X77500Y94500D02*
D03*
X73500Y95000D02*
D03*
X88000Y129000D02*
D03*
X11500Y42500D02*
D03*
X12000Y46500D02*
D03*
X38000Y54500D02*
D03*
X79000Y129500D02*
D03*
X48500Y124500D02*
D03*
X11500Y92000D02*
D03*
X57000Y64000D02*
D03*
X99500Y66000D02*
D03*
D72*
X36500Y27678D02*
D03*
Y33466D02*
D03*
X121000Y55466D02*
D03*
Y49678D02*
D03*
D73*
X66999Y51736D02*
D03*
Y61579D02*
D03*
Y81264D02*
D03*
Y71421D02*
D03*
D74*
X112000Y138500D02*
D03*
X108575D02*
D03*
D75*
X94343Y142000D02*
D03*
X94342Y134913D02*
D03*
X72689Y142000D02*
D03*
X72689Y134913D02*
D03*
D76*
X59000Y134787D02*
D03*
Y138213D02*
D03*
D77*
X80563Y134913D02*
D03*
X86469Y142000D02*
D03*
X88437D02*
D03*
X82532D02*
D03*
X80563D02*
D03*
X78594D02*
D03*
X78595Y134913D02*
D03*
X82531D02*
D03*
X84500D02*
D03*
X86469D02*
D03*
X88437D02*
D03*
X84500Y142000D02*
D03*
D78*
X65500Y14500D02*
D03*
X57626Y18240D02*
D03*
Y10760D02*
D03*
D79*
X42811Y11000D02*
D03*
X49189D02*
D03*
M02*
