G04*
G04 #@! TF.GenerationSoftware,Altium Limited,Altium Designer,26.1.1 (7)*
G04*
G04 Layer_Color=32768*
%FSLAX25Y25*%
%MOIN*%
G70*
G04*
G04 #@! TF.SameCoordinates,0E126E90-0E33-439C-9967-E6331449B6E0*
G04*
G04*
G04 #@! TF.FilePolarity,Positive*
G04*
G01*
G75*
%ADD12C,0.00787*%
%ADD89C,0.00984*%
%ADD90C,0.00197*%
D12*
X56209Y10169D02*
G03*
X56209Y10169I-394J0D01*
G01*
X84516Y31138D02*
G03*
X84516Y31138I-394J0D01*
G01*
D89*
X98772Y138457D02*
G03*
X98772Y138457I-492J0D01*
G01*
X69244D02*
G03*
X69244Y138457I-492J0D01*
G01*
D90*
X33504Y24635D02*
X39496D01*
X33504Y36509D02*
X39496D01*
X33504Y24635D02*
Y36509D01*
X39496Y24635D02*
Y36509D01*
X96063Y17504D02*
Y23496D01*
X107937Y17504D02*
Y23496D01*
X96063D02*
X107937D01*
X96063Y17504D02*
X107937D01*
X118004Y58509D02*
X123996D01*
X118004Y46635D02*
X123996D01*
Y58509D01*
X118004Y46635D02*
Y58509D01*
X44185Y77303D02*
X49815D01*
X44185Y88839D02*
X49815D01*
Y77303D02*
Y88839D01*
X44185Y77303D02*
Y88839D01*
X56835Y132701D02*
Y140299D01*
Y132701D02*
X61165D01*
Y140299D01*
X56835D02*
X61165D01*
X26935Y52004D02*
Y57996D01*
X15061Y52004D02*
Y57996D01*
Y52004D02*
X26935D01*
X15061Y57996D02*
X26935D01*
X31047Y40299D02*
Y47701D01*
X17953Y40299D02*
Y47701D01*
X31047D01*
X17953Y40299D02*
X31047D01*
X40232Y8185D02*
Y13815D01*
Y8185D02*
X51768D01*
Y13815D01*
X40232D02*
X51768D01*
X22669Y8004D02*
Y13996D01*
X34543Y8004D02*
Y13996D01*
X22669D02*
X34543D01*
X22669Y8004D02*
X34543D01*
X89232Y21315D02*
X100768D01*
X89232Y15685D02*
X100768D01*
Y21315D01*
X89232Y15685D02*
Y21315D01*
X52685Y88839D02*
X58315D01*
X52685Y77303D02*
X58315D01*
X52685D02*
Y88839D01*
X58315Y77303D02*
Y88839D01*
X84685Y85339D02*
X90315D01*
X84685Y73803D02*
X90315D01*
X84685D02*
Y85339D01*
X90315Y73803D02*
Y85339D01*
X90685D02*
X96315D01*
X90685Y73803D02*
X96315D01*
X90685D02*
Y85339D01*
X96315Y73803D02*
Y85339D01*
X43697Y69685D02*
Y75315D01*
X32161Y69685D02*
Y75315D01*
X43697D01*
X32161Y69685D02*
X43697D01*
X44551Y60299D02*
Y67701D01*
X31457Y60299D02*
Y67701D01*
X44551D01*
X31457Y60299D02*
X44551D01*
X110732Y34315D02*
X122268D01*
Y28685D02*
Y34315D01*
X110732Y28685D02*
X122268D01*
X110732D02*
Y34315D01*
X72815Y17732D02*
Y29268D01*
X67185Y17732D02*
Y29268D01*
Y17732D02*
X72815D01*
X67185Y29268D02*
X72815D01*
X610Y89669D02*
X29390D01*
Y48331D02*
Y89669D01*
X610Y48331D02*
X29390D01*
X610D02*
Y89669D01*
X105476Y66606D02*
X127524D01*
X105476Y37394D02*
X127524D01*
Y66606D01*
X105476Y37394D02*
Y66606D01*
X114087Y136335D02*
Y140665D01*
X106488Y136335D02*
X114087D01*
X106488D02*
Y140665D01*
X114087D01*
X106701Y72599D02*
Y85693D01*
X99299Y72599D02*
Y85693D01*
Y72599D02*
X106701D01*
X99299Y85693D02*
X106701D01*
X85216Y38063D02*
X100783D01*
Y62472D01*
X85216D02*
X100783D01*
X85216Y38063D02*
Y62472D01*
X7657Y11902D02*
X27343D01*
Y37098D01*
X7657D02*
X27343D01*
X7657Y11902D02*
Y37098D01*
X42114Y39807D02*
Y53193D01*
Y39807D02*
X58886D01*
Y53193D01*
X42114D02*
X58886D01*
X46610Y15193D02*
Y31807D01*
X60390D01*
Y15193D02*
Y31807D01*
X46610Y15193D02*
X60390D01*
X31303Y40815D02*
X42839D01*
X31303Y35185D02*
X42839D01*
Y40815D01*
X31303Y35185D02*
Y40815D01*
X109949Y20299D02*
X123043D01*
X109949Y27701D02*
X123043D01*
X109949Y20299D02*
Y27701D01*
X123043Y20299D02*
Y27701D01*
X125043Y75504D02*
Y81496D01*
X113169Y75504D02*
Y81496D01*
X125043D01*
X113169Y75504D02*
X125043D01*
X61421Y74732D02*
X76579D01*
Y61268D02*
Y74732D01*
X61421Y61268D02*
X76579D01*
X61421D02*
Y74732D01*
M02*
