M48
;Layer_Color=9474304
;FILE_FORMAT=2:5
INCH
;TYPE=PLATED
T01F00S00C0.01181
T02F00S00C0.02756
T03F00S00C0.03150
T04F00S00C0.03937
T05F00S00C0.04134
T06F00S00C0.04331
T07F00S00C0.07087
;TYPE=NON_PLATED
T08F00S00C0.02559
T09F00S00C0.07087
%
T01
X0011500Y0042500
X0012000Y0046500
X0038000Y0054500
X0046500Y0072500
X0057000Y0064000
X0077500Y0058500
X0075500Y0073500
X0077500Y0094500
X0073500Y0095000
X0094400Y0102100
X0088000Y0129000
X0079000Y0129500
X0082000Y0147500
X0106500Y0128000
X0048500Y0124500
X0040465Y0086142
X0011500Y0092000
X0006756Y0092500
X0007000Y0117500
X0099500Y0066000
X0083000Y0043000
X0109000Y0034000
X0111000Y0017000
X0124110Y0030000
X0128500Y0049000
X0072500Y0015500
T02
X0074067Y0129992
Y0146922
X0092965
Y0129992
T03
X0019665Y0020563
Y0028437
T04
X0019492Y0139986
Y0147860
X0027563Y0136049
X0035437
X0043508Y0139986
Y0147860
T05
X0016000Y0101000
X0026000
Y0111000
X0016000
Y0121000
X0026000
T06
X0099000Y0109500
Y0119500
X0109000
X0119000
X0129000
Y0109500
X0119000
X0109000
T07
X0006500Y0006000
X0131500
T08
X0068752Y0138457
X0098280
T09
X0006500Y0151000
X0131500
M30
