G04*
G04 #@! TF.GenerationSoftware,Altium Limited,Altium Designer,26.1.1 (7)*
G04*
G04 Layer_Color=8388736*
%FSLAX25Y25*%
%MOIN*%
G70*
G04*
G04 #@! TF.SameCoordinates,0E126E90-0E33-439C-9967-E6331449B6E0*
G04*
G04*
G04 #@! TF.FilePolarity,Negative*
G04*
G01*
G75*
G04:AMPARAMS|DCode=32|XSize=42.25mil|YSize=44.61mil|CornerRadius=8.28mil|HoleSize=0mil|Usage=FLASHONLY|Rotation=270.000|XOffset=0mil|YOffset=0mil|HoleType=Round|Shape=RoundedRectangle|*
%AMROUNDEDRECTD32*
21,1,0.04225,0.02805,0,0,270.0*
21,1,0.02569,0.04461,0,0,270.0*
1,1,0.01656,-0.01403,-0.01284*
1,1,0.01656,-0.01403,0.01284*
1,1,0.01656,0.01403,0.01284*
1,1,0.01656,0.01403,-0.01284*
%
%ADD32ROUNDEDRECTD32*%
%ADD33R,0.13400X0.09900*%
G04:AMPARAMS|DCode=34|XSize=49.34mil|YSize=62.33mil|CornerRadius=9.17mil|HoleSize=0mil|Usage=FLASHONLY|Rotation=90.000|XOffset=0mil|YOffset=0mil|HoleType=Round|Shape=RoundedRectangle|*
%AMROUNDEDRECTD34*
21,1,0.04934,0.04400,0,0,90.0*
21,1,0.03100,0.06233,0,0,90.0*
1,1,0.01834,0.02200,0.01550*
1,1,0.01834,0.02200,-0.01550*
1,1,0.01834,-0.02200,-0.01550*
1,1,0.01834,-0.02200,0.01550*
%
%ADD34ROUNDEDRECTD34*%
%ADD35R,0.03000X0.08600*%
G04:AMPARAMS|DCode=36|XSize=81.56mil|YSize=27.62mil|CornerRadius=4.95mil|HoleSize=0mil|Usage=FLASHONLY|Rotation=90.000|XOffset=0mil|YOffset=0mil|HoleType=Round|Shape=RoundedRectangle|*
%AMROUNDEDRECTD36*
21,1,0.08156,0.01772,0,0,90.0*
21,1,0.07165,0.02762,0,0,90.0*
1,1,0.00991,0.00886,0.03583*
1,1,0.00991,0.00886,-0.03583*
1,1,0.00991,-0.00886,-0.03583*
1,1,0.00991,-0.00886,0.03583*
%
%ADD36ROUNDEDRECTD36*%
%ADD37R,0.04228X0.04465*%
G04:AMPARAMS|DCode=38|XSize=49.34mil|YSize=62.33mil|CornerRadius=9.17mil|HoleSize=0mil|Usage=FLASHONLY|Rotation=0.000|XOffset=0mil|YOffset=0mil|HoleType=Round|Shape=RoundedRectangle|*
%AMROUNDEDRECTD38*
21,1,0.04934,0.04400,0,0,0.0*
21,1,0.03100,0.06233,0,0,0.0*
1,1,0.01834,0.01550,-0.02200*
1,1,0.01834,-0.01550,-0.02200*
1,1,0.01834,-0.01550,0.02200*
1,1,0.01834,0.01550,0.02200*
%
%ADD38ROUNDEDRECTD38*%
%ADD39R,0.03910X0.04461*%
G04:AMPARAMS|DCode=40|XSize=59.58mil|YSize=32.41mil|CornerRadius=7.05mil|HoleSize=0mil|Usage=FLASHONLY|Rotation=0.000|XOffset=0mil|YOffset=0mil|HoleType=Round|Shape=RoundedRectangle|*
%AMROUNDEDRECTD40*
21,1,0.05958,0.01831,0,0,0.0*
21,1,0.04547,0.03241,0,0,0.0*
1,1,0.01410,0.02274,-0.00915*
1,1,0.01410,-0.02274,-0.00915*
1,1,0.01410,-0.02274,0.00915*
1,1,0.01410,0.02274,0.00915*
%
%ADD40ROUNDEDRECTD40*%
G04:AMPARAMS|DCode=41|XSize=56.82mil|YSize=31.23mil|CornerRadius=6.9mil|HoleSize=0mil|Usage=FLASHONLY|Rotation=0.000|XOffset=0mil|YOffset=0mil|HoleType=Round|Shape=RoundedRectangle|*
%AMROUNDEDRECTD41*
21,1,0.05682,0.01742,0,0,0.0*
21,1,0.04301,0.03123,0,0,0.0*
1,1,0.01381,0.02151,-0.00871*
1,1,0.01381,-0.02151,-0.00871*
1,1,0.01381,-0.02151,0.00871*
1,1,0.01381,0.02151,0.00871*
%
%ADD41ROUNDEDRECTD41*%
G04:AMPARAMS|DCode=42|XSize=57.21mil|YSize=31.23mil|CornerRadius=6.9mil|HoleSize=0mil|Usage=FLASHONLY|Rotation=0.000|XOffset=0mil|YOffset=0mil|HoleType=Round|Shape=RoundedRectangle|*
%AMROUNDEDRECTD42*
21,1,0.05721,0.01742,0,0,0.0*
21,1,0.04341,0.03123,0,0,0.0*
1,1,0.01381,0.02170,-0.00871*
1,1,0.01381,-0.02170,-0.00871*
1,1,0.01381,-0.02170,0.00871*
1,1,0.01381,0.02170,0.00871*
%
%ADD42ROUNDEDRECTD42*%
G04:AMPARAMS|DCode=43|XSize=61.15mil|YSize=30.05mil|CornerRadius=6.76mil|HoleSize=0mil|Usage=FLASHONLY|Rotation=90.000|XOffset=0mil|YOffset=0mil|HoleType=Round|Shape=RoundedRectangle|*
%AMROUNDEDRECTD43*
21,1,0.06115,0.01654,0,0,90.0*
21,1,0.04764,0.03005,0,0,90.0*
1,1,0.01351,0.00827,0.02382*
1,1,0.01351,0.00827,-0.02382*
1,1,0.01351,-0.00827,-0.02382*
1,1,0.01351,-0.00827,0.02382*
%
%ADD43ROUNDEDRECTD43*%
G04:AMPARAMS|DCode=44|XSize=42.25mil|YSize=44.61mil|CornerRadius=8.28mil|HoleSize=0mil|Usage=FLASHONLY|Rotation=0.000|XOffset=0mil|YOffset=0mil|HoleType=Round|Shape=RoundedRectangle|*
%AMROUNDEDRECTD44*
21,1,0.04225,0.02805,0,0,0.0*
21,1,0.02569,0.04461,0,0,0.0*
1,1,0.01656,0.01284,-0.01403*
1,1,0.01656,-0.01284,-0.01403*
1,1,0.01656,-0.01284,0.01403*
1,1,0.01656,0.01284,0.01403*
%
%ADD44ROUNDEDRECTD44*%
%ADD45R,0.13398X0.06706*%
%ADD46R,0.02495X0.04621*%
G04:AMPARAMS|DCode=47|XSize=43mil|YSize=43mil|CornerRadius=8.38mil|HoleSize=0mil|Usage=FLASHONLY|Rotation=180.000|XOffset=0mil|YOffset=0mil|HoleType=Round|Shape=RoundedRectangle|*
%AMROUNDEDRECTD47*
21,1,0.04300,0.02625,0,0,180.0*
21,1,0.02625,0.04300,0,0,180.0*
1,1,0.01675,-0.01313,0.01313*
1,1,0.01675,0.01313,0.01313*
1,1,0.01675,0.01313,-0.01313*
1,1,0.01675,-0.01313,-0.01313*
%
%ADD47ROUNDEDRECTD47*%
%ADD48R,0.04895X0.04816*%
%ADD49C,0.06699*%
%ADD50R,0.06699X0.06699*%
%ADD51C,0.07487*%
%ADD52R,0.05950X0.05950*%
%ADD53C,0.05950*%
%ADD54C,0.03359*%
%ADD55C,0.05118*%
%ADD56C,0.10642*%
%ADD57R,0.07487X0.07487*%
%ADD58C,0.03162*%
D32*
X47000Y80000D02*
D03*
Y86142D02*
D03*
X93500Y82642D02*
D03*
X87500D02*
D03*
X55500Y86142D02*
D03*
X70000Y26571D02*
D03*
X55500Y80000D02*
D03*
X87500Y76500D02*
D03*
X93500D02*
D03*
X70000Y20429D02*
D03*
D33*
X116500Y52000D02*
D03*
D34*
X103000Y82642D02*
D03*
Y75650D02*
D03*
D35*
X83500Y102100D02*
D03*
X68500D02*
D03*
X78500Y121500D02*
D03*
X73500D02*
D03*
X68500D02*
D03*
X63500D02*
D03*
X58500D02*
D03*
X53500D02*
D03*
Y102100D02*
D03*
X58500D02*
D03*
X63500D02*
D03*
X83500Y121500D02*
D03*
X78500Y102100D02*
D03*
X73500D02*
D03*
D36*
X119000Y42256D02*
D03*
X109000D02*
D03*
X124000Y61744D02*
D03*
X109000D02*
D03*
X114000D02*
D03*
X119000D02*
D03*
X124000Y42256D02*
D03*
X114000D02*
D03*
D37*
X113429Y31500D02*
D03*
X119571D02*
D03*
D38*
X119992Y24000D02*
D03*
X41500Y64000D02*
D03*
X27996Y44000D02*
D03*
X21004D02*
D03*
X34508Y64000D02*
D03*
X113000Y24000D02*
D03*
D39*
X98228Y18500D02*
D03*
X91772D02*
D03*
D40*
X4173Y86500D02*
D03*
Y66500D02*
D03*
Y61500D02*
D03*
Y81500D02*
D03*
Y76500D02*
D03*
X25827Y86500D02*
D03*
X4173Y71500D02*
D03*
X25827Y81500D02*
D03*
Y76500D02*
D03*
Y71500D02*
D03*
Y66500D02*
D03*
Y61500D02*
D03*
Y56500D02*
D03*
Y51500D02*
D03*
X4173D02*
D03*
Y56500D02*
D03*
D41*
X73154Y68000D02*
D03*
X64846Y64260D02*
D03*
Y71740D02*
D03*
D42*
X55441Y42760D02*
D03*
X45559Y46500D02*
D03*
X55441Y50240D02*
D03*
X45559Y42760D02*
D03*
Y50240D02*
D03*
D43*
X57240Y18835D02*
D03*
X49760D02*
D03*
Y28165D02*
D03*
X53500D02*
D03*
X57240D02*
D03*
X53500Y18835D02*
D03*
D44*
X41000Y72500D02*
D03*
X34000Y38000D02*
D03*
X34858Y72500D02*
D03*
X40142Y38000D02*
D03*
D45*
X93000Y58535D02*
D03*
Y42000D02*
D03*
D46*
X80500Y20000D02*
D03*
X84240D02*
D03*
Y29047D02*
D03*
X80500D02*
D03*
X76760D02*
D03*
Y20000D02*
D03*
D47*
X64000Y26500D02*
D03*
Y20500D02*
D03*
D48*
X122000Y78500D02*
D03*
X116213D02*
D03*
D49*
X19492Y147860D02*
D03*
Y139986D02*
D03*
X43508Y147860D02*
D03*
Y139986D02*
D03*
X27563Y136049D02*
D03*
X35437D02*
D03*
X119000Y119500D02*
D03*
X99000Y109500D02*
D03*
Y119500D02*
D03*
X109000Y109500D02*
D03*
Y119500D02*
D03*
X119000Y109500D02*
D03*
X129000D02*
D03*
D50*
Y119500D02*
D03*
D51*
X16000Y121000D02*
D03*
Y101000D02*
D03*
X26000Y111000D02*
D03*
X16000D02*
D03*
X26000Y121000D02*
D03*
D52*
X19665Y28437D02*
D03*
D53*
Y20563D02*
D03*
D54*
X98280Y138457D02*
D03*
X68752D02*
D03*
D55*
X92965Y146922D02*
D03*
X74067D02*
D03*
X92965Y129992D02*
D03*
X74067D02*
D03*
D56*
X6500Y151000D02*
D03*
X131500Y6000D02*
D03*
X6500D02*
D03*
X131500Y151000D02*
D03*
D57*
X26000Y101000D02*
D03*
D58*
X111000Y17000D02*
D03*
X106500Y128000D02*
D03*
X128500Y49000D02*
D03*
X94400Y102100D02*
D03*
X75500Y73500D02*
D03*
X124110Y30000D02*
D03*
X109000Y34000D02*
D03*
X83000Y43000D02*
D03*
X7000Y117500D02*
D03*
X40465Y86142D02*
D03*
X72500Y15500D02*
D03*
X46500Y72500D02*
D03*
X77500Y58500D02*
D03*
X6756Y92500D02*
D03*
X82000Y147500D02*
D03*
X77500Y94500D02*
D03*
X73500Y95000D02*
D03*
X88000Y129000D02*
D03*
X11500Y42500D02*
D03*
X12000Y46500D02*
D03*
X38000Y54500D02*
D03*
X79000Y129500D02*
D03*
X48500Y124500D02*
D03*
X11500Y92000D02*
D03*
X57000Y64000D02*
D03*
X99500Y66000D02*
D03*
M02*
