G04*
G04 #@! TF.GenerationSoftware,Altium Limited,Altium Designer,26.1.1 (7)*
G04*
G04 Layer_Color=16711935*
%FSLAX25Y25*%
%MOIN*%
G70*
G04*
G04 #@! TF.SameCoordinates,0E126E90-0E33-439C-9967-E6331449B6E0*
G04*
G04*
G04 #@! TF.FilePolarity,Positive*
G04*
G01*
G75*
%ADD12C,0.00787*%
%ADD14C,0.00500*%
%ADD88C,0.00000*%
D12*
X38520Y11000D02*
G03*
X38520Y11000I-394J0D01*
G01*
X4567Y91658D02*
G03*
X4567Y91658I-394J0D01*
G01*
X107032Y34500D02*
G03*
X107032Y34500I-394J0D01*
G01*
X29508Y28437D02*
G03*
X29508Y28437I-394J0D01*
G01*
X41051Y51224D02*
G03*
X41051Y51224I-394J0D01*
G01*
X50153Y12240D02*
G03*
X50153Y12240I-394J0D01*
G01*
X60240Y71839D02*
G03*
X60240Y71839I-394J0D01*
G01*
D14*
X34492Y34115D02*
X38508D01*
X34492Y27029D02*
X38508D01*
X34492D02*
Y34115D01*
X38508Y27029D02*
Y34115D01*
X105543Y18492D02*
Y22508D01*
X98457Y18492D02*
Y22508D01*
X105543D01*
X98457Y18492D02*
X105543D01*
X118992Y49029D02*
X123008D01*
X118992Y56115D02*
X123008D01*
Y49029D02*
Y56115D01*
X118992Y49029D02*
Y56115D01*
X45425Y86220D02*
X48575D01*
X45425Y79921D02*
X48575D01*
Y86220D01*
X45425Y79921D02*
Y86220D01*
X58016Y134532D02*
Y138469D01*
Y134532D02*
X59984D01*
Y138469D01*
X58016D02*
X59984D01*
X17455Y52992D02*
Y57008D01*
X24542Y52992D02*
Y57008D01*
X17455Y52992D02*
X24542D01*
X17455Y57008D02*
X24542D01*
X20563Y41520D02*
Y46480D01*
X28437Y41520D02*
Y46480D01*
X20563D02*
X28437D01*
X20563Y41520D02*
X28437D01*
X42654Y9228D02*
Y12772D01*
X49347Y9228D02*
Y12772D01*
X42654Y9228D02*
X49347D01*
X42654Y12772D02*
X49347D01*
X32150Y8992D02*
Y13008D01*
X25063Y8992D02*
Y13008D01*
X32150D01*
X25063Y8992D02*
X32150D01*
X91654Y20272D02*
X98346D01*
X91654Y16728D02*
X98346D01*
X91654D02*
Y20272D01*
X98346Y16728D02*
Y20272D01*
X53925Y79921D02*
X57075D01*
X53925Y86220D02*
X57075D01*
X53925Y79921D02*
Y86220D01*
X57075Y79921D02*
Y86220D01*
X85925Y76421D02*
X89075D01*
X85925Y82720D02*
X89075D01*
X85925Y76421D02*
Y82720D01*
X89075Y76421D02*
Y82720D01*
X91925Y76421D02*
X95075D01*
X91925Y82720D02*
X95075D01*
X91925Y76421D02*
Y82720D01*
X95075Y76421D02*
Y82720D01*
X34780Y70925D02*
Y74075D01*
X41079Y70925D02*
Y74075D01*
X34780D02*
X41079D01*
X34780Y70925D02*
X41079D01*
X34067Y61520D02*
Y66480D01*
X41941Y61520D02*
Y66480D01*
X34067D02*
X41941D01*
X34067Y61520D02*
X41941D01*
X113350Y33075D02*
X119650D01*
Y29925D02*
Y33075D01*
X113350Y29925D02*
X119650D01*
X113350D02*
Y33075D01*
X71575Y20350D02*
Y26650D01*
X68425Y20350D02*
Y26650D01*
X71575D01*
X68425Y20350D02*
X71575D01*
X22677Y49315D02*
Y88685D01*
X7323Y49315D02*
Y88685D01*
Y49315D02*
X22677D01*
X7323Y88685D02*
X22677D01*
X106461Y59874D02*
X126539D01*
X106461Y44126D02*
X126539D01*
Y59874D01*
X106461Y44126D02*
Y59874D01*
X112256Y137516D02*
Y139484D01*
X108319Y137516D02*
X112256D01*
X108319D02*
Y139484D01*
X112256D01*
X105480Y75209D02*
Y83083D01*
X100520Y75209D02*
Y83083D01*
X105480D01*
X100520Y75209D02*
X105480D01*
X86622Y41311D02*
Y59224D01*
X99378D01*
Y41311D02*
Y59224D01*
X86622Y41311D02*
X99378D01*
X8642Y12886D02*
X26358D01*
Y36114D01*
X8642D02*
X26358D01*
X8642Y12886D02*
Y36114D01*
X47350Y40791D02*
Y52209D01*
Y40791D02*
X53650D01*
Y52209D01*
X47350D02*
X53650D01*
X47594Y20350D02*
Y26650D01*
X59406D01*
Y20350D02*
Y26650D01*
X47594Y20350D02*
X59406D01*
X33921Y39575D02*
X40220D01*
X33921Y36425D02*
X40220D01*
X33921D02*
Y39575D01*
X40220Y36425D02*
Y39575D01*
X112559Y21520D02*
X120433D01*
X112559Y26480D02*
X120433D01*
Y21520D02*
Y26480D01*
X112559Y21520D02*
Y26480D01*
X115563Y76492D02*
Y80508D01*
X122650Y76492D02*
Y80508D01*
X115563D02*
X122650D01*
X115563Y76492D02*
X122650D01*
X66441Y62252D02*
Y73748D01*
Y62252D02*
X71559D01*
Y73748D01*
X66441D02*
X71559D01*
D88*
X85700Y113000D02*
G03*
X85700Y110600I0J-1200D01*
G01*
X82500Y119700D02*
X84500D01*
Y124000D01*
X82500D02*
X84500D01*
X82500Y119700D02*
Y124000D01*
X77500Y119700D02*
X79500D01*
Y124000D01*
X77500D02*
X79500D01*
X77500Y119700D02*
Y124000D01*
X72500Y119700D02*
X74500D01*
Y124000D01*
X72500D02*
X74500D01*
X72500Y119700D02*
Y124000D01*
X67500Y119700D02*
X69500D01*
Y124000D01*
X67500D02*
X69500D01*
X67500Y119700D02*
Y124000D01*
X62500Y119700D02*
X64500D01*
Y124000D01*
X62500D02*
X64500D01*
X62500Y119700D02*
Y124000D01*
X57500Y119700D02*
X59500D01*
Y124000D01*
X57500D02*
X59500D01*
X57500Y119700D02*
Y124000D01*
X52500Y119700D02*
X54500D01*
Y124000D01*
X52500D02*
X54500D01*
X52500Y119700D02*
Y124000D01*
Y103900D02*
X54500D01*
X52500Y99600D02*
Y103900D01*
Y99600D02*
X54500D01*
Y103900D01*
X57500D02*
X59500D01*
X57500Y99600D02*
Y103900D01*
Y99600D02*
X59500D01*
Y103900D01*
X62500D02*
X64500D01*
X62500Y99600D02*
Y103900D01*
Y99600D02*
X64500D01*
Y103900D01*
X67500D02*
X69500D01*
X67500Y99600D02*
Y103900D01*
Y99600D02*
X69500D01*
Y103900D01*
X72500D02*
X74500D01*
X72500Y99600D02*
Y103900D01*
Y99600D02*
X74500D01*
Y103900D01*
X77500D02*
X79500D01*
X77500Y99600D02*
Y103900D01*
Y99600D02*
X79500D01*
Y103900D01*
X82500D02*
X84500D01*
X82500Y99600D02*
Y103900D01*
Y99600D02*
X84500D01*
Y103900D01*
X51300D02*
Y119700D01*
Y103900D02*
X85700D01*
Y110600D01*
Y113000D01*
Y119700D01*
X51300D02*
X85700D01*
M02*
